<svg width="30" height="30" viewBox="0 0 30 30" fill="none" xmlns="http://www.w3.org/2000/svg">
<g clip-path="url(#clip0_2062_599)">
<path fill-rule="evenodd" clip-rule="evenodd" d="M20.6902 27.6663C18.8902 27.6001 13.789 26.8951 8.44649 21.5538C3.10524 16.2113 2.40149 11.1113 2.33399 9.31009C2.23399 6.56509 4.33649 3.89884 6.76524 2.85759C7.05771 2.73129 7.378 2.68321 7.69466 2.71806C8.01132 2.7529 8.31348 2.86947 8.57149 3.05634C10.5715 4.51384 11.9515 6.71884 13.1365 8.45259C13.3972 8.8335 13.5087 9.29702 13.4497 9.75483C13.3907 10.2126 13.1653 10.6327 12.8165 10.9351L10.3777 12.7463C10.2599 12.8314 10.177 12.9564 10.1443 13.098C10.1117 13.2396 10.1316 13.3883 10.2002 13.5163C10.7527 14.5201 11.7352 16.0151 12.8602 17.1401C13.9865 18.2651 15.5515 19.3126 16.6252 19.9276C16.7599 20.0032 16.9183 20.0243 17.0681 19.9866C17.2178 19.949 17.3474 19.8554 17.4302 19.7251L19.0177 17.3088C19.3096 16.9211 19.7402 16.6614 20.2192 16.5841C20.6983 16.5067 21.1887 16.6177 21.5877 16.8938C23.3465 18.1113 25.399 19.4676 26.9015 21.3913C27.1035 21.6512 27.232 21.9606 27.2736 22.2871C27.3152 22.6137 27.2682 22.9454 27.1377 23.2476C26.0915 25.6888 23.444 27.7676 20.6902 27.6663Z" fill="#AC6CFF"/>
</g>
<defs>
<clipPath id="clip0_2062_599">
<rect width="30" height="30" fill="white"/>
</clipPath>
</defs>
</svg>
