<svg width="110" height="35" viewBox="0 0 110 35" fill="none" xmlns="http://www.w3.org/2000/svg">
<g clip-path="url(#clip0_2005_752)">
<path d="M57.9724 9.09314C57.9724 10.3352 56.9759 11.3357 55.7388 11.3357C54.5016 11.3357 53.5051 10.3352 53.5051 9.09314C53.5051 7.8511 54.4673 6.85057 55.7388 6.85057C57.0102 6.88507 57.9724 7.8856 57.9724 9.09314ZM48.7628 13.6128C48.7628 13.8198 48.7628 14.1648 48.7628 14.1648C48.7628 14.1648 47.6975 12.7848 45.4295 12.7848C41.6838 12.7848 38.7628 15.6484 38.7628 19.616C38.7628 23.5491 41.6494 26.4472 45.4295 26.4472C47.7319 26.4472 48.7628 25.0327 48.7628 25.0327V25.6192C48.7628 25.8952 48.969 26.1022 49.2439 26.1022H52.0274V13.1298C52.0274 13.1298 49.4845 13.1298 49.2439 13.1298C48.969 13.1298 48.7628 13.3713 48.7628 13.6128ZM48.7628 21.9276C48.2474 22.6866 47.2164 23.3421 45.9793 23.3421C43.78 23.3421 42.0961 21.9621 42.0961 19.616C42.0961 17.2699 43.78 15.8899 45.9793 15.8899C47.1821 15.8899 48.2817 16.5799 48.7628 17.3044V21.9276ZM54.0893 13.1298H57.3882V26.1022H54.0893V13.1298ZM103.368 12.7848C101.1 12.7848 100.034 14.1648 100.034 14.1648V6.88507H96.7353V26.1022C96.7353 26.1022 99.2783 26.1022 99.5188 26.1022C99.7937 26.1022 99.9999 25.8607 99.9999 25.6192V25.0327C99.9999 25.0327 101.065 26.4472 103.333 26.4472C107.079 26.4472 110 23.5491 110 19.616C110 15.6829 107.079 12.7848 103.368 12.7848ZM102.818 23.3076C101.546 23.3076 100.55 22.6521 100.034 21.8931V17.2699C100.55 16.5799 101.649 15.8554 102.818 15.8554C105.017 15.8554 106.701 17.2354 106.701 19.5815C106.701 21.9276 105.017 23.3076 102.818 23.3076ZM95.0171 18.4085V26.1367H91.7181V18.788C91.7181 16.6489 91.0309 15.7864 89.1752 15.7864C88.1786 15.7864 87.1477 16.3039 86.4948 17.0629V26.1022H83.1958V13.1298H85.8075C86.0824 13.1298 86.2886 13.3713 86.2886 13.6128V14.1648C87.2508 13.1643 88.5223 12.7848 89.7937 12.7848C91.237 12.7848 92.4398 13.1988 93.402 14.0268C94.5704 14.9928 95.0171 16.2349 95.0171 18.4085ZM75.1889 12.7848C72.9209 12.7848 71.8556 14.1648 71.8556 14.1648V6.88507H68.5566V26.1022C68.5566 26.1022 71.0996 26.1022 71.3401 26.1022C71.6151 26.1022 71.8212 25.8607 71.8212 25.6192V25.0327C71.8212 25.0327 72.8865 26.4472 75.1546 26.4472C78.9003 26.4472 81.8212 23.5491 81.8212 19.616C81.8556 15.6829 78.9346 12.7848 75.1889 12.7848ZM74.6391 23.3076C73.3676 23.3076 72.3711 22.6521 71.8556 21.8931V17.2699C72.3711 16.5799 73.4707 15.8554 74.6391 15.8554C76.8384 15.8554 78.5223 17.2354 78.5223 19.5815C78.5223 21.9276 76.8384 23.3076 74.6391 23.3076ZM65.7044 12.7848C66.701 12.7848 67.2164 12.9573 67.2164 12.9573V16.0279C67.2164 16.0279 64.4673 15.0963 62.7491 17.0629V26.1367H59.4501V13.1298C59.4501 13.1298 61.9931 13.1298 62.2336 13.1298C62.5085 13.1298 62.7147 13.3713 62.7147 13.6128V14.1648C63.3333 13.4403 64.6735 12.7848 65.7044 12.7848ZM31.4432 24.9292C31.2714 24.5152 31.0996 24.0667 30.9278 23.6871C30.6529 23.0661 30.3779 22.4796 30.1374 21.9276L30.103 21.8931C27.7319 16.7179 25.1889 11.4737 22.5085 6.29855L22.4054 6.09154C22.1305 5.57402 21.8556 5.02201 21.5807 4.46999C21.237 3.84897 20.8934 3.19344 20.3436 2.57242C19.2439 1.19238 17.6632 0.43335 15.9793 0.43335C14.2611 0.43335 12.7147 1.19238 11.5807 2.50342C11.0652 3.12444 10.6872 3.77996 10.3436 4.40098C10.0687 4.953 9.79375 5.50502 9.51883 6.02254L9.41574 6.22955C6.76969 11.4047 4.19237 16.6489 1.82124 21.8241L1.78688 21.8931C1.54633 22.4451 1.27141 23.0316 0.996498 23.6526C0.824676 24.0322 0.652855 24.4462 0.481034 24.8947C0.0342983 26.1712 -0.103159 27.3788 0.0686625 28.6208C0.446669 31.2084 2.16488 33.382 4.53602 34.348C5.42949 34.7275 6.35732 34.9 7.31952 34.9C7.59444 34.9 7.93808 34.8655 8.21299 34.831C9.34701 34.693 10.5154 34.3135 11.6494 33.658C13.0584 32.8644 14.3986 31.7259 15.9106 30.0699C17.4226 31.7259 18.7972 32.8644 20.1718 33.658C21.3058 34.3135 22.4742 34.693 23.6082 34.831C23.8831 34.8655 24.2267 34.9 24.5017 34.9C25.4639 34.9 26.426 34.7275 27.2852 34.348C29.6907 33.382 31.3745 31.1739 31.7525 28.6208C32.0274 27.4133 31.89 26.2057 31.4432 24.9292ZM15.945 26.7232C14.0893 24.3772 12.8865 22.1691 12.4742 20.306C12.3023 19.5125 12.268 18.8225 12.3711 18.2015C12.4398 17.6494 12.646 17.1664 12.9209 16.7524C13.5738 15.8209 14.6735 15.2344 15.945 15.2344C17.2164 15.2344 18.3504 15.7864 18.969 16.7524C19.2439 17.1664 19.4501 17.6494 19.5188 18.2015C19.6219 18.8225 19.5876 19.547 19.4157 20.306C19.0034 22.1346 17.8006 24.3427 15.945 26.7232ZM29.6563 28.3448C29.4157 30.1389 28.213 31.6914 26.5291 32.3814C25.7044 32.7264 24.8109 32.8299 23.9175 32.7264C23.0584 32.6229 22.1992 32.3469 21.3058 31.8294C20.0687 31.1394 18.8315 30.0699 17.3882 28.4828C19.6563 25.6882 21.0309 23.1351 21.5463 20.858C21.7869 19.7885 21.8212 18.8225 21.7181 17.9254C21.5807 17.0629 21.2714 16.2694 20.7903 15.5794C19.725 14.0268 17.9381 13.1298 15.945 13.1298C13.9518 13.1298 12.1649 14.0613 11.0996 15.5794C10.6185 16.2694 10.3092 17.0629 10.1718 17.9254C10.0343 18.8225 10.0687 19.823 10.3436 20.858C10.859 23.1351 12.268 25.7227 14.5017 28.5173C13.0927 30.1044 11.8212 31.1739 10.5841 31.8639C9.69065 32.3814 8.83155 32.6574 7.97244 32.7609C7.04461 32.8644 6.15114 32.7264 5.36076 32.4159C3.67691 31.7259 2.47416 30.1734 2.23361 28.3793C2.13052 27.5168 2.19925 26.6542 2.54289 25.6882C2.64598 25.3432 2.8178 24.9982 2.98962 24.5842C3.23017 24.0321 3.50509 23.4456 3.78 22.8591L3.81437 22.7901C6.1855 17.6494 8.72846 12.4053 11.3745 7.29908L11.4776 7.09207C11.7525 6.57456 12.0274 6.02254 12.3023 5.50502C12.5773 4.953 12.8865 4.43549 13.2645 3.98697C13.9862 3.15894 14.9484 2.71043 16.0137 2.71043C17.079 2.71043 18.0412 3.15894 18.7628 3.98697C19.1408 4.43549 19.4501 4.953 19.725 5.50502C19.9999 6.02254 20.2748 6.57456 20.5498 7.09207L20.6529 7.29908C23.2645 12.4398 25.8075 17.6839 28.1786 22.8246V22.8591C28.4535 23.4111 28.6941 24.0321 28.969 24.5842C29.1408 24.9982 29.3126 25.3432 29.4157 25.6882C29.6907 26.5852 29.7937 27.4478 29.6563 28.3448Z" fill="#2C2E33"/>
</g>
<defs>
<clipPath id="clip0_2005_752">
<rect width="110" height="34.4667" fill="white" transform="translate(0 0.43335)"/>
</clipPath>
</defs>
</svg>
