<svg width="110" height="34" viewBox="0 0 110 34" fill="none" xmlns="http://www.w3.org/2000/svg">
<g clip-path="url(#clip0_2005_787)">
<path fill-rule="evenodd" clip-rule="evenodd" d="M68.2418 26.7548C61.8495 31.4608 52.5843 33.9717 44.6071 33.9717C33.4218 33.9717 23.3522 29.8395 15.7341 22.9669C15.1356 22.4265 15.6718 21.69 16.3901 22.1109C24.6115 26.8887 34.7769 29.763 45.2775 29.763C52.3593 29.763 60.1497 28.2995 67.3129 25.2626C68.395 24.8035 69.3 25.9704 68.2418 26.7548Z" fill="#2C2E33"/>
<path fill-rule="evenodd" clip-rule="evenodd" d="M70.8994 23.7178C70.0854 22.6752 65.4983 23.2252 63.4394 23.4691C62.8121 23.5456 62.7163 23.0004 63.2813 22.6083C66.9348 20.04 72.9296 20.7813 73.6287 21.6422C74.3278 22.5078 73.4468 28.51 70.0136 31.3748C69.4869 31.8148 68.9841 31.5804 69.2187 30.9969C69.9897 29.0743 71.7182 24.7652 70.8994 23.7178Z" fill="#2C2E33"/>
<path fill-rule="evenodd" clip-rule="evenodd" d="M63.5831 4.47737V1.98085C63.5831 1.60303 63.8704 1.34955 64.2152 1.34955H75.4053C75.7644 1.34955 76.0517 1.60781 76.0517 1.98085V4.11868C76.0469 4.47737 75.7452 4.94607 75.2089 5.68737L69.4104 13.9565C71.5651 13.9039 73.8395 14.2243 75.7931 15.3243C76.2336 15.573 76.3533 15.9365 76.3868 16.2952V18.9591C76.3868 19.3226 75.9846 19.7482 75.5633 19.5282C72.1205 17.7252 67.5478 17.5291 63.7411 19.5474C63.3533 19.7578 62.9463 19.3369 62.9463 18.9734V16.4435C62.9463 16.0369 62.9511 15.3434 63.3581 14.7265L70.076 5.10389H64.2295C63.8704 5.10389 63.5831 4.85042 63.5831 4.47737Z" fill="#2C2E33"/>
<path fill-rule="evenodd" clip-rule="evenodd" d="M22.763 20.0543H19.3586C19.033 20.0304 18.7744 19.7865 18.7505 19.4756V2.0239C18.7505 1.67477 19.0426 1.39738 19.4065 1.39738H22.5811C22.9115 1.41171 23.1748 1.6652 23.1988 1.98085V4.26216H23.261C24.0894 2.05737 25.6455 1.02911 27.7428 1.02911C29.8735 1.02911 31.2047 2.05737 32.1623 4.26216C32.9859 2.05737 34.8581 1.02911 36.8644 1.02911C38.2913 1.02911 39.8522 1.61737 40.8051 2.93737C41.8824 4.40563 41.6622 6.53867 41.6622 8.40867L41.6574 19.423C41.6574 19.7721 41.3653 20.0543 41.0014 20.0543H37.6017C37.2618 20.0304 36.9889 19.7578 36.9889 19.423V10.1735C36.9889 9.43693 37.0559 7.60041 36.8931 6.90215C36.6393 5.73042 35.878 5.40041 34.8916 5.40041C34.068 5.40041 33.2062 5.95041 32.8566 6.83042C32.5071 7.71041 32.5406 9.18345 32.5406 10.1735V19.423C32.5406 19.7721 32.2485 20.0543 31.8846 20.0543H28.485C28.1402 20.0304 27.8721 19.7578 27.8721 19.423L27.8673 10.1735C27.8673 8.22694 28.1881 5.36215 25.77 5.36215C23.3233 5.36215 23.419 8.15519 23.419 10.1735V19.423C23.419 19.7721 23.1269 20.0543 22.763 20.0543Z" fill="#2C2E33"/>
<path fill-rule="evenodd" clip-rule="evenodd" d="M85.6856 1.02911C90.7372 1.02911 93.4712 5.36215 93.4712 10.8717C93.4712 16.1948 90.4499 20.4178 85.6856 20.4178C80.725 20.4178 78.0244 16.0848 78.0244 10.6852C78.0244 5.25215 80.7585 1.02911 85.6856 1.02911ZM85.7143 4.59216C83.2053 4.59216 83.0473 8.00693 83.0473 10.1352C83.0473 12.2682 83.0137 16.8213 85.6856 16.8213C88.3239 16.8213 88.4484 13.1482 88.4484 10.91C88.4484 9.43693 88.3861 7.67694 87.9408 6.28041C87.5578 5.06564 86.7965 4.59216 85.7143 4.59216Z" fill="#2C2E33"/>
<path fill-rule="evenodd" clip-rule="evenodd" d="M100.021 20.0543H96.6313C96.2914 20.0304 96.0185 19.7578 96.0185 19.423L96.0137 1.9665C96.0424 1.64607 96.3249 1.39738 96.6697 1.39738H99.8251C100.122 1.41171 100.366 1.61259 100.433 1.8852V4.55389H100.495C101.448 2.16737 102.784 1.02911 105.135 1.02911C106.663 1.02911 108.152 1.57911 109.109 3.08563C110 4.48215 110 6.83041 110 8.51867V19.5043C109.962 19.8104 109.679 20.0543 109.344 20.0543H105.93C105.619 20.0304 105.36 19.8008 105.327 19.5043V10.0252C105.327 8.11694 105.547 5.32389 103.196 5.32389C102.368 5.32389 101.606 5.87868 101.228 6.72041C100.749 7.78694 100.687 8.84867 100.687 10.0252V19.423C100.682 19.7721 100.385 20.0543 100.021 20.0543Z" fill="#2C2E33"/>
<path fill-rule="evenodd" clip-rule="evenodd" d="M54.6622 11.7182C54.6622 13.043 54.6957 14.1478 54.0254 15.3243C53.4843 16.2808 52.6224 16.8691 51.6696 16.8691C50.3624 16.8691 49.5963 15.8743 49.5963 14.406C49.5963 11.5078 52.1963 10.9817 54.6622 10.9817V11.7182ZM58.0954 20.0065C57.8703 20.2073 57.5447 20.2217 57.2909 20.0878C56.1609 19.1504 55.955 18.7152 55.3373 17.8208C53.4699 19.7243 52.1436 20.2934 49.7255 20.2934C46.8574 20.2934 44.6309 18.5286 44.6309 14.9943C44.6309 12.2347 46.1248 10.3552 48.2603 9.43691C50.1086 8.62386 52.6894 8.48039 54.6622 8.2556V7.8156C54.6622 7.00734 54.7244 6.05082 54.2456 5.35256C53.8338 4.72604 53.039 4.46778 52.3351 4.46778C51.0375 4.46778 49.8835 5.13256 49.601 6.50995C49.5436 6.81604 49.3185 7.11734 49.0073 7.13169L45.7082 6.77778C45.4305 6.71561 45.1193 6.49082 45.2007 6.06517C45.9572 2.06691 49.5771 0.861694 52.8139 0.861694C54.4707 0.861694 56.635 1.30169 57.9421 2.55474C59.5989 4.09952 59.4409 6.16082 59.4409 8.40386V13.703C59.4409 15.2956 60.1016 15.9939 60.7241 16.8547C60.9396 17.1608 60.9875 17.5291 60.7097 17.7586C60.0154 18.3373 58.7801 19.4134 58.1001 20.016L58.0954 20.0065Z" fill="#2C2E33"/>
<path fill-rule="evenodd" clip-rule="evenodd" d="M10.0313 11.7182C10.0313 13.043 10.0649 14.1478 9.39451 15.3243C8.85343 16.2808 7.99634 16.8691 7.0387 16.8691C5.73151 16.8691 4.97018 15.8743 4.97018 14.406C4.97018 11.5078 7.57019 10.9817 10.0313 10.9817V11.7182ZM13.4645 20.0065C13.2395 20.2073 12.9139 20.2217 12.6601 20.0878C11.5301 19.1504 11.3289 18.7152 10.7065 17.8208C8.83907 19.7243 7.51752 20.2934 5.09467 20.2934C2.23131 20.2934 0 18.5286 0 14.9943C0 12.2347 1.49872 10.3552 3.62948 9.43691C5.47773 8.62386 8.05859 8.48039 10.0313 8.2556V7.8156C10.0313 7.00734 10.0936 6.05082 9.61955 5.35256C9.20297 4.72604 8.40813 4.46778 7.70905 4.46778C6.41144 4.46778 5.25269 5.13256 4.97018 6.50995C4.91272 6.81604 4.68768 7.11734 4.38123 7.13169L1.07735 6.77778C0.799634 6.71561 0.493187 6.49082 0.569799 6.06517C1.33113 2.06691 4.94624 0.861694 8.18308 0.861694C9.83981 0.861694 12.0041 1.30169 13.3113 2.55474C14.968 4.09952 14.81 6.16082 14.81 8.40386V13.703C14.81 15.2956 15.4708 15.9939 16.0932 16.8547C16.3135 17.1608 16.3614 17.5291 16.0837 17.7586C15.3894 18.3373 14.154 19.4134 13.4741 20.016L13.4645 20.0065Z" fill="#2C2E33"/>
</g>
<defs>
<clipPath id="clip0_2005_787">
<rect width="110" height="33.11" fill="white" transform="translate(0 0.861694)"/>
</clipPath>
</defs>
</svg>
