<svg width="120" height="24" viewBox="0 0 120 24" fill="none" xmlns="http://www.w3.org/2000/svg">
<g clip-path="url(#clip0_2005_708)">
<path d="M13.92 4.43474L6.96 8.86948L13.92 13.3042L6.96 17.739L0 13.2802L6.96 8.84551L0 4.43474L6.96 0L13.92 4.43474ZM6.924 19.1653L13.884 14.7305L20.844 19.1653L13.884 23.6L6.924 19.1653ZM13.92 13.2802L20.88 8.84551L13.92 4.43474L20.844 0L27.804 4.43474L20.844 8.86948L27.804 13.3042L20.844 17.739L13.92 13.2802Z" fill="#2C2E33"/>
<path d="M33.2642 4.43474H38.8922C42.4802 4.43474 45.4442 6.50828 45.4442 11.2427V12.2375C45.4442 17.0078 42.6722 19.1533 39.0002 19.1533H33.2642V4.43474ZM36.4082 7.10757V16.4685H38.8202C40.8602 16.4685 42.2282 15.138 42.2282 12.1776V11.3985C42.2282 8.43799 40.7882 7.10757 38.7122 7.10757H36.4082ZM47.1122 7.2514H49.6322L50.0402 10.0201C50.5202 8.13834 51.7442 7.13154 53.9642 7.13154H54.7442V10.3078H53.4482C50.8922 10.3078 50.2682 11.1947 50.2682 13.7117V19.1892H47.1602V7.2514H47.1122ZM55.3682 13.46V13.1244C55.3682 9.13316 57.9242 6.95175 61.4042 6.95175C64.9562 6.95175 67.4402 9.13316 67.4402 13.1244V13.46C67.4402 17.3794 65.0282 19.4889 61.4042 19.4889C57.5522 19.4529 55.3682 17.3914 55.3682 13.46ZM64.2602 13.4241V13.1244C64.2602 10.9071 63.1442 9.57664 61.3682 9.57664C59.6282 9.57664 58.4762 10.7992 58.4762 13.1244V13.4241C58.4762 15.5695 59.5922 16.7921 61.3682 16.7921C63.1442 16.7561 64.2602 15.5695 64.2602 13.4241ZM69.0722 7.2514H71.6642L71.9642 9.50472C72.5882 7.99451 73.9202 6.95175 75.8882 6.95175C78.9242 6.95175 80.9282 9.13316 80.9282 13.1724V13.508C80.9282 17.4273 78.7082 19.5009 75.8882 19.5009C74.0042 19.5009 72.7082 18.6499 72.0722 17.2835V23.3123H69.0362L69.0722 7.2514ZM77.7722 13.4241V13.1604C77.7722 10.7872 76.5482 9.61259 74.9162 9.61259C73.1762 9.61259 72.0242 10.943 72.0242 13.1604V13.3881C72.0242 15.4976 73.1402 16.828 74.8802 16.828C76.6682 16.7921 77.7722 15.6534 77.7722 13.4241ZM85.5242 16.9838L85.2602 19.1653H82.5962V3.26013H85.6322V9.36089C86.3042 7.80274 87.6362 6.95175 89.5202 6.95175C92.3762 6.98771 94.4882 8.95338 94.4882 12.9087V13.2802C94.4882 17.2356 92.4842 19.5009 89.4482 19.5009C87.4442 19.4529 86.1482 18.53 85.5242 16.9838ZM91.2962 13.2802V12.9806C91.2962 10.7992 90.1082 9.57664 88.4402 9.57664C86.7362 9.57664 85.5482 10.943 85.5482 13.0166V13.2802C85.5482 15.4976 86.7002 16.7921 88.4042 16.7921C90.2282 16.7921 91.2962 15.6534 91.2962 13.2802ZM95.8202 13.46V13.1244C95.8202 9.13316 98.3762 6.95175 101.856 6.95175C105.408 6.95175 107.892 9.13316 107.892 13.1244V13.46C107.892 17.3794 105.444 19.4889 101.856 19.4889C98.0042 19.4529 95.8202 17.3914 95.8202 13.46ZM104.736 13.4241V13.1244C104.736 10.9071 103.62 9.57664 101.844 9.57664C100.104 9.57664 98.9522 10.7992 98.9522 13.1244V13.4241C98.9522 15.5695 100.068 16.7921 101.844 16.7921C103.632 16.7561 104.736 15.5695 104.736 13.4241ZM111.96 12.9806L107.772 7.2514H111.36L113.772 10.8351L116.22 7.2514H119.772L115.524 12.9446L120 19.1653H116.484L113.748 15.21L111.084 19.1653H107.412L111.96 12.9806Z" fill="#2C2E33"/>
</g>
<defs>
<clipPath id="clip0_2005_708">
<rect width="120" height="23.6" fill="white"/>
</clipPath>
</defs>
</svg>
