<svg width="120" height="44" viewBox="0 0 120 44" fill="none" xmlns="http://www.w3.org/2000/svg">
<path fill-rule="evenodd" clip-rule="evenodd" d="M31.039 16.5816C32.3327 19.0891 32.6429 22.0994 31.6596 24.9807C29.7426 30.5972 23.6354 33.5964 18.0189 31.6794C15.5929 30.8513 13.6551 29.2415 12.3911 27.2272C14.0633 26.4291 19.7552 23.6354 20.8768 22.978C21.7983 22.441 23.1703 21.6494 23.1703 21.6494L23.7522 22.8355L24.6408 28.6805L25.3195 28.2887L25.7711 20.1246C27.1423 19.2672 28.3507 18.433 29.6156 17.5599L29.6159 17.5596C30.0791 17.2399 30.5499 16.9149 31.039 16.5816ZM30.5346 15.7068C30.5344 15.7068 30.5343 15.7066 30.5341 15.7066C30.0006 15.9638 29.4835 16.2091 28.9747 16.4504C27.5861 17.1092 26.2595 17.7386 24.8315 18.4974L17.5354 14.8064L16.8568 15.1982L21.4744 18.8903L22.2095 19.9854L22.2106 19.9873C22.2106 19.9873 20.8392 20.7797 19.9133 21.3092C18.7833 21.9519 13.518 25.4842 11.9907 26.5334C10.6552 24.007 10.3242 20.9566 11.3202 18.0387C13.2372 12.4222 19.3442 9.42297 24.9608 11.3399C27.3526 12.1563 29.2696 13.7323 30.5346 15.7068Z" fill="#2C2E33"/>
<path fill-rule="evenodd" clip-rule="evenodd" d="M107.167 19.1181V17.9384H109.246V28.6846H107.107V27.4642C106.344 28.3528 105.271 28.9402 103.719 28.9402C100.664 28.9402 98.7012 26.5054 98.7012 23.3179C98.7012 20.1526 100.664 17.6956 103.719 17.6956C105.077 17.6956 106.336 18.2078 107.167 19.1181ZM107.024 21.2271C106.39 20.2901 105.32 19.7134 104.06 19.7134C102.169 19.7134 100.867 21.3147 100.867 23.3179C100.867 25.3211 102.121 26.9703 104.06 26.9703C105.356 26.9703 106.404 26.2321 107.024 25.2752V21.2271Z" fill="#2C2E33"/>
<path d="M94.396 15.172C94.396 14.3462 95.0725 13.6785 95.907 13.6785C96.7154 13.6785 97.4006 14.3638 97.4006 15.172C97.4006 16.0067 96.7329 16.6831 95.907 16.6831C95.0725 16.6831 94.396 16.0067 94.396 15.172Z" fill="#2C2E33"/>
<path d="M94.7866 17.9384H97.0093V28.6846H94.7866V17.9384Z" fill="#2C2E33"/>
<path fill-rule="evenodd" clip-rule="evenodd" d="M90.4428 13.9539H92.6177V28.6846H90.4785V27.4641C89.7155 28.3528 88.6424 28.9402 87.0907 28.9402C84.0361 28.9402 82.0728 26.5054 82.0728 23.3179C82.0728 20.1526 84.0361 17.6956 87.0907 17.6956C88.3975 17.6956 89.6123 18.17 90.4428 19.017V13.9539ZM90.3949 21.2271C89.7617 20.2901 88.6911 19.7134 87.432 19.7134C85.5409 19.7134 84.2382 21.3147 84.2382 23.3179C84.2382 25.3211 85.4931 26.9703 87.432 26.9703C88.7275 26.9703 89.7757 26.2321 90.3949 25.2752V21.2271Z" fill="#2C2E33"/>
<path fill-rule="evenodd" clip-rule="evenodd" d="M75.8109 28.9579C76.7814 28.9556 77.6622 28.774 78.4534 28.4131C79.2496 28.0499 79.9481 27.526 80.5488 26.8415L79.2214 25.4271L79.2183 25.4303C78.7775 25.8986 78.2815 26.2576 77.7292 26.5476C77.1818 26.8212 76.5576 26.9588 75.8551 26.9588C74.1957 26.9588 72.7513 25.7085 72.5425 24.0625H80.8988C80.9006 24.0385 80.9024 24.0146 80.9041 23.9906C80.9233 23.7341 80.933 23.4782 80.933 23.2199C80.933 20.1508 78.7312 17.6599 75.6844 17.6599C72.6152 17.6599 70.3022 20.0841 70.3022 23.3089C70.3022 26.5981 72.6119 28.9546 75.8109 28.9579ZM72.5956 22.2263H78.6614C78.4473 20.7317 77.2181 19.6169 75.6384 19.6169C74.8474 19.6169 74.1241 19.9596 73.5772 20.4694C73.0524 20.9587 72.6945 21.5981 72.5956 22.2263Z" fill="#2C2E33"/>
<path fill-rule="evenodd" clip-rule="evenodd" d="M60.8692 27.6074V32.6705H58.6943V17.9398H60.8335V19.1602C61.5965 18.2715 62.6696 17.6841 64.2213 17.6841C67.2759 17.6841 69.2393 20.119 69.2393 23.3064C69.2393 26.4717 67.2759 28.9287 64.2213 28.9287C62.9146 28.9287 61.6997 28.4543 60.8692 27.6074ZM60.9171 25.3972C61.5503 26.3343 62.6209 26.9109 63.88 26.9109C65.7711 26.9109 67.0738 25.3096 67.0738 23.3064C67.0738 21.3032 65.8189 19.6541 63.88 19.6541C62.5845 19.6541 61.5363 20.3923 60.9171 21.3492V25.3972Z" fill="#2C2E33"/>
<path d="M50.9822 23.1599L47.1918 17.939H49.8749L52.4033 21.5003L54.9316 17.939H57.5789L53.7719 23.1827L57.7551 28.6848H55.0691L52.3748 24.8816L49.6805 28.6848H46.9824L50.9822 23.1599Z" fill="#2C2E33"/>
<path d="M40.0309 22.3806H45.6131V20.2721H40.0309V16.4413H46.0963V14.3327H37.6021V28.6847H46.1401V26.5762H40.0309V22.3806Z" fill="#2C2E33"/>
</svg>
