<svg width="100" height="32" viewBox="0 0 100 32" fill="none" xmlns="http://www.w3.org/2000/svg">
<g clip-path="url(#clip0_2005_760)">
<path d="M12.5089 11.6137V14.9606H20.5861C20.3717 16.8121 19.7284 18.2364 18.7277 19.1621C17.584 20.3015 15.7255 21.5834 12.5089 21.5834C7.57684 21.5834 3.71694 17.5955 3.71694 12.6818C3.71694 7.7682 7.50536 3.78032 12.5089 3.78032C15.1537 3.78032 17.1551 4.8485 18.5847 6.20153L20.9435 3.85153C18.9421 1.9288 16.2259 0.43335 12.5089 0.43335C5.71837 0.43335 0 5.91668 0 12.6818C0 19.447 5.71837 24.9303 12.5089 24.9303C16.1544 24.9303 18.9421 23.7197 21.0865 21.5121C23.3024 19.3046 24.0172 16.1712 24.0172 13.6788C24.0172 12.8955 23.9457 12.1833 23.8742 11.6137H12.5089Z" fill="#2C2E33"/>
<path d="M34.0243 8.83636C29.664 8.83636 26.0186 12.1833 26.0186 16.7409C26.0186 21.2985 29.5925 24.6455 34.0243 24.6455C38.456 24.6455 42.03 21.3697 42.03 16.8121C42.03 12.1833 38.456 8.83636 34.0243 8.83636ZM34.0243 21.5833C31.594 21.5833 29.5211 19.5894 29.5211 16.8121C29.5211 13.9636 31.594 12.0409 34.0243 12.0409C36.4546 12.0409 38.5275 13.9636 38.5275 16.8121C38.5275 19.5894 36.4546 21.5833 34.0243 21.5833Z" fill="#2C2E33"/>
<path d="M73.1237 10.6167H72.9808C72.1945 9.69091 70.6934 8.83636 68.7635 8.83636C64.7606 8.83636 61.3296 12.2545 61.3296 16.7409C61.3296 21.1561 64.7606 24.6455 68.7635 24.6455C70.6934 24.6455 72.1945 23.7909 72.9808 22.8652H73.1237V24.0045C73.1237 26.9955 71.4797 28.6333 68.9064 28.6333C66.762 28.6333 65.4754 27.1379 64.9036 25.7848L61.9014 27.0667C62.7592 29.1318 65.118 31.7667 68.9779 31.7667C73.0522 31.7667 76.5547 29.3455 76.5547 23.5061V9.26364H73.2667V10.6167H73.1237ZM69.1209 21.5833C66.6906 21.5833 64.9036 19.5182 64.9036 16.8121C64.9036 14.0348 66.762 12.0409 69.1209 12.0409C71.4797 12.0409 73.3382 14.1061 73.3382 16.8833C73.4096 19.5894 71.5512 21.5833 69.1209 21.5833Z" fill="#2C2E33"/>
<path d="M51.8226 8.83636C47.4624 8.83636 43.8169 12.1833 43.8169 16.7409C43.8169 21.2985 47.3909 24.6455 51.8226 24.6455C56.2544 24.6455 59.8283 21.3697 59.8283 16.8121C59.8283 12.1833 56.2544 8.83636 51.8226 8.83636ZM51.8226 21.5833C49.3923 21.5833 47.3194 19.5894 47.3194 16.8121C47.3194 13.9636 49.3923 12.0409 51.8226 12.0409C54.2529 12.0409 56.3258 13.9636 56.3258 16.8121C56.3258 19.5894 54.2529 21.5833 51.8226 21.5833Z" fill="#2C2E33"/>
<path d="M79.1992 0.789429H82.6302V24.7167H79.1992V0.789429Z" fill="#2C2E33"/>
<path d="M93.2094 21.5833C91.4224 21.5833 90.2073 20.8 89.3495 19.1621L100 14.8182L99.6426 13.8924C98.9993 12.1121 96.9264 8.83636 92.852 8.83636C88.7777 8.83636 85.3467 12.0409 85.3467 16.7409C85.3467 21.1561 88.7062 24.6455 93.2094 24.6455C96.8549 24.6455 98.9278 22.4379 99.857 21.1561L97.1408 19.3758C96.2116 20.7288 94.9964 21.5833 93.2094 21.5833ZM92.995 11.8273C94.4246 11.8273 95.6397 12.5394 95.9971 13.5364L88.8492 16.5273C88.7777 13.2515 91.208 11.8273 92.995 11.8273Z" fill="#2C2E33"/>
</g>
<defs>
<clipPath id="clip0_2005_760">
<rect width="100" height="31.3333" fill="white" transform="translate(0 0.43335)"/>
</clipPath>
</defs>
</svg>
