<svg width="120" height="27" viewBox="0 0 120 27" fill="none" xmlns="http://www.w3.org/2000/svg">
<path d="M50.1381 14.2856H44.0779V8.91333H41.3926V22.2258H44.0779V16.8241H50.1381V22.2258H52.8234V8.91333H50.1381V14.2856Z" fill="#2C2E33"/>
<path d="M65.2675 16.5289C65.2675 18.6985 64.1963 19.8496 62.2593 19.8496C60.3077 19.8496 59.2366 18.6689 59.2366 16.4403V8.92809H56.5513V16.5437C56.5513 20.2924 58.6203 22.4324 62.23 22.4324C65.8691 22.4324 67.9527 20.2481 67.9527 16.4256V8.91333H65.2675V16.5289Z" fill="#2C2E33"/>
<path d="M96.2872 18.0638L93.2938 8.91333H91.0927L88.0993 18.0638L85.1646 8.92809H82.3179L86.9254 22.2258H89.1411L92.1493 13.4886L95.1574 22.2258H97.4024L102.01 8.92809H99.222L96.2872 18.0638Z" fill="#2C2E33"/>
<path d="M106.823 16.4993H111.695V14.0789H106.823V11.3485H113.91V8.92804H104.167V22.211H114.16V19.7906H106.823V16.4993Z" fill="#2C2E33"/>
<path d="M120 8.91333H117.359V22.1963H120V8.91333Z" fill="#2C2E33"/>
<path d="M75.1424 8.91333L69.3169 22.2111H72.0462L73.2495 19.4364H79.3097L80.4983 22.2111H83.3156L77.5048 8.91333H75.1424ZM74.2473 17.0455L76.2722 12.2783L78.3119 17.0455H74.2473Z" fill="#2C2E33"/>
<path d="M32.3246 10.6844C32.5153 7.67356 29.5072 4.88413 29.5072 4.88413C29.5072 4.88413 23.9165 11.7027 19.8372 20.6613C19.8226 20.7056 19.8079 20.7942 19.8519 20.8237C19.8813 20.8532 19.94 20.868 20.0133 20.8385C21.5394 20.071 27.8931 16.7798 30.5784 14.2117C30.5637 14.197 32.2365 12.8539 32.3246 10.6844ZM25.1931 3.88053C25.1931 3.88053 24.4888 1.25346 21.6568 0.55979C21.6568 0.55979 20.8351 0.353167 19.9693 0.235096C19.9693 0.235096 16.7998 4.33806 18.3405 19.8496C18.3552 19.9382 18.3992 19.9529 18.4286 19.9677C18.4873 19.9824 18.5459 19.9677 18.5753 19.9086C19.5878 18.4328 24.2247 11.5109 25.1785 7.30459C25.1785 7.28983 25.692 5.25311 25.1931 3.88053ZM20.8497 23.008C20.8351 23.0375 20.8204 23.1261 20.8791 23.1704C21.9062 23.9083 25.0171 26.0926 26.5138 26.5206C26.5138 26.5206 29.2871 27.4652 31.6789 23.3179C31.6789 23.3179 23.6377 23.0375 20.9524 22.949C20.9231 22.949 20.8644 22.9637 20.8497 23.008ZM34.5256 13.7985C34.5256 13.7985 25.4279 18.7132 20.7177 21.9011C20.6883 21.9306 20.6443 21.9749 20.659 22.0487C20.6736 22.093 20.7177 22.1372 20.7764 22.1372C22.4638 22.1372 28.8322 22.152 28.9936 22.1225C28.9936 22.1225 29.8154 22.093 30.8425 21.6945C30.8425 21.6945 33.1169 20.9713 34.2908 18.3737C34.2908 18.3885 35.3474 16.2632 34.5256 13.7985ZM14.1145 21.9011C9.40423 18.7132 0.306526 13.7985 0.306526 13.7985C-0.500528 16.2632 0.541306 18.3885 0.541306 18.3885C1.7152 20.986 3.98963 21.7092 3.98963 21.7092C5.00211 22.1077 5.83852 22.1372 5.83852 22.1372C5.99993 22.1667 12.383 22.1668 14.0558 22.152C14.1145 22.152 14.1585 22.1077 14.1732 22.0634C14.1879 21.9749 14.1438 21.9306 14.1145 21.9011ZM13.8797 22.949C11.2091 23.0375 3.15323 23.3179 3.15323 23.3179C5.55972 27.4652 8.31837 26.5206 8.31837 26.5206C9.81509 26.0926 12.9259 23.9083 13.9531 23.1704C14.0118 23.1261 13.9971 23.0375 13.9824 23.008C13.9678 22.9637 13.9091 22.949 13.8797 22.949ZM13.1754 0.545032C10.3433 1.25346 9.63901 3.88053 9.63901 3.88053C9.1401 5.25311 9.65368 7.28983 9.65368 7.28983C10.5928 11.4961 15.2297 18.418 16.2569 19.8939C16.3009 19.9529 16.3449 19.9677 16.4036 19.9529C16.4476 19.9382 16.477 19.9086 16.4916 19.8349C18.0324 4.3233 14.8628 0.220337 14.8628 0.220337C13.9971 0.338408 13.1754 0.545032 13.1754 0.545032ZM5.32494 4.86938C5.32494 4.86938 2.30215 7.6588 2.49291 10.6696C2.58095 12.8392 4.25376 14.197 4.25376 14.197C6.92437 16.765 13.2781 20.0562 14.8188 20.8237C14.8775 20.8532 14.9362 20.8385 14.9802 20.8089C15.0243 20.7647 15.0243 20.6909 14.9949 20.6466C10.9303 11.688 5.32494 4.86938 5.32494 4.86938Z" fill="#2C2E33"/>
</svg>
