<svg width="100" height="30" viewBox="0 0 100 30" fill="none" xmlns="http://www.w3.org/2000/svg">
<g clip-path="url(#clip0_2005_839)">
<path d="M10.8302 4.69244V12.6877H3.48491V4.69244H0V23.7783H3.48585V16.0424H10.8292V23.7783H14.316V4.69244H10.8302ZM25.4736 17.6094C25.4736 18.3744 25.1697 19.1081 24.6288 19.649C24.0878 20.19 23.3542 20.4939 22.5892 20.4939C21.8242 20.4939 21.0905 20.19 20.5495 19.649C20.0086 19.1081 19.7047 18.3744 19.7047 17.6094V9.43395H16.3981V17.6094C16.3981 19.2498 17.0497 20.8229 18.2096 21.9828C19.3695 23.1427 20.9427 23.7943 22.583 23.7943C24.2234 23.7943 25.7965 23.1427 26.9564 21.9828C28.1163 20.8229 28.7679 19.2498 28.7679 17.6094V9.43395H25.4736V17.6094ZM49.9745 10.2764C49.9745 8.59999 51.083 8.06886 52.2972 8.06886C53.2764 8.06886 54.5689 8.81414 55.4151 9.71791L57.5802 7.16508C56.4991 5.70282 54.3066 4.69244 52.5113 4.69244C48.9236 4.69244 46.3292 6.79339 46.3292 10.2764C46.3292 16.7387 54.2274 14.6877 54.2274 18.3047C54.2274 19.4198 53.1443 20.4047 51.9047 20.4047C49.9491 20.4047 49.3151 19.449 48.417 18.4377L46.0132 20.9368C47.5509 22.8236 49.4472 23.7821 51.7179 23.7821C55.1264 23.7821 57.8679 21.6556 57.8679 18.3311C57.8679 11.1575 49.9689 13.3868 49.9689 10.2764M98.8368 20.7292C96.883 20.7292 96.3274 19.884 96.3274 18.5896V12.8585H99.3651V9.95471H96.3274V6.12358L92.9745 7.62829V19.3019C92.9745 22.2877 95.0349 23.7924 97.8594 23.7924C98.3028 23.8 98.7462 23.7641 99.1821 23.6868L100 20.6755C99.6311 20.7009 99.2075 20.7264 98.8368 20.7264M38.0604 9.52924C36.4226 9.52924 35.2792 10.0047 34.1736 11.0887V4.80659H30.8623V16.4509C30.8623 20.8094 34.0132 23.7962 37.5547 23.7962C41.483 23.7962 44.9387 20.7566 44.9387 16.6641C44.9387 12.6226 41.7585 9.53207 38.0604 9.53207M38.0396 20.4632C37.5461 20.4632 37.0574 20.366 36.6015 20.1771C36.1455 19.9883 35.7313 19.7115 35.3823 19.3625C35.0333 19.0135 34.7565 18.5993 34.5677 18.1433C34.3788 17.6874 34.2816 17.1987 34.2816 16.7052C34.2816 16.2117 34.3788 15.723 34.5677 15.267C34.7565 14.8111 35.0333 14.3968 35.3823 14.0479C35.7313 13.6989 36.1455 13.4221 36.6015 13.2332C37.0574 13.0444 37.5461 12.9472 38.0396 12.9472C39.0363 12.9472 39.9922 13.3431 40.6969 14.0479C41.4017 14.7526 41.7976 15.7085 41.7976 16.7052C41.7976 17.7019 41.4017 18.6577 40.6969 19.3625C39.9922 20.0673 39.0363 20.4632 38.0396 20.4632ZM74.0226 16.4906C74.0226 12.3906 70.5745 9.35848 66.6387 9.35848C63.0981 9.35848 59.9462 12.3443 59.9462 16.7038V28.3547H63.2575V22.0641C64.3613 23.1462 65.5066 23.6236 67.1424 23.6236C70.8406 23.6236 74.0226 20.533 74.0226 16.4906ZM70.8868 16.449C70.8868 17.4457 70.4909 18.4016 69.7861 19.1064C69.0813 19.8111 68.1255 20.2071 67.1288 20.2071C66.1321 20.2071 65.1762 19.8111 64.4715 19.1064C63.7667 18.4016 63.3708 17.4457 63.3708 16.449C63.3708 15.4524 63.7667 14.4965 64.4715 13.7917C65.1762 13.087 66.1321 12.691 67.1288 12.691C68.1255 12.691 69.0813 13.087 69.7861 13.7917C70.4909 14.4965 70.8868 15.4524 70.8868 16.449Z" fill="#2C2E33"/>
<path d="M84.7224 9.1981V5.87075C85.1621 5.66525 85.5344 5.33909 85.796 4.93024C86.0575 4.52139 86.1975 4.04666 86.1998 3.56131V3.4849C86.1998 2.0698 85.0526 0.922635 83.6375 0.922635H83.5611C82.8816 0.922635 82.2298 1.19259 81.7493 1.6731C81.2688 2.15362 80.9988 2.80534 80.9988 3.4849V3.56131C81.0011 4.04666 81.1411 4.52139 81.4027 4.93024C81.6642 5.33909 82.0365 5.66525 82.4762 5.87075V9.1981C81.2125 9.3916 80.0223 9.91558 79.0262 10.717L69.9007 3.60943C69.9658 3.37452 69.9998 3.13301 70.0036 2.89056C70.0047 2.31953 69.8364 1.76099 69.5201 1.2856C69.2037 0.810205 68.7535 0.439316 68.2263 0.219843C67.6991 0.000370089 67.1187 -0.057826 66.5584 0.052616C65.9982 0.163058 65.4833 0.437176 65.0788 0.840297C64.6744 1.24342 64.3986 1.75743 64.2863 2.31732C64.1741 2.87721 64.2304 3.45781 64.4481 3.9857C64.6659 4.51359 65.0353 4.96504 65.5096 5.28295C65.984 5.60086 66.542 5.77094 67.113 5.77169C67.6126 5.76934 68.1028 5.63597 68.5347 5.3849L77.5205 12.3773C76.7133 13.5968 76.2922 15.0312 76.312 16.4936C76.3319 17.9559 76.7918 19.3783 77.6319 20.5755L74.8988 23.3094C74.6779 23.2388 74.4477 23.2013 74.2158 23.1981C73.7471 23.1985 73.289 23.3378 72.8994 23.5984C72.5098 23.8591 72.2063 24.2294 72.0271 24.6625C71.8479 25.0956 71.8011 25.5721 71.8926 26.0318C71.9841 26.4915 72.2099 26.9138 72.5413 27.2452C72.8728 27.5767 73.295 27.8024 73.7547 27.894C74.2144 27.9855 74.691 27.9387 75.1241 27.7595C75.5572 27.5803 75.9275 27.2767 76.1881 26.8872C76.4488 26.4976 76.5881 26.0395 76.5885 25.5707C76.5854 25.3388 76.5479 25.1086 76.4771 24.8877L79.1809 22.183C80.0626 22.8618 81.088 23.3297 82.1784 23.551C83.2689 23.7723 84.3956 23.7411 85.4721 23.4597C86.5486 23.1783 87.5465 22.6542 88.3892 21.9276C89.2319 21.201 89.8971 20.2912 90.3338 19.2678C90.7706 18.2444 90.9673 17.1346 90.9089 16.0234C90.8505 14.9122 90.5385 13.8292 89.9969 12.8572C89.4552 11.8852 88.6983 11.0501 87.7841 10.4159C86.8698 9.78165 85.8225 9.36508 84.7224 9.1981ZM83.6017 20.1415C83.102 20.1552 82.6046 20.0687 82.1389 19.887C81.6733 19.7052 81.2487 19.432 80.8904 19.0835C80.5322 18.7349 80.2474 18.318 80.0529 17.8575C79.8584 17.397 79.7582 16.9022 79.7582 16.4023C79.7582 15.9025 79.8584 15.4077 80.0529 14.9472C80.2474 14.4867 80.5322 14.0698 80.8904 13.7212C81.2487 13.3727 81.6733 13.0995 82.1389 12.9177C82.6046 12.736 83.102 12.6495 83.6017 12.6632C84.5701 12.6971 85.4877 13.1056 86.161 13.8025C86.8343 14.4995 87.2108 15.4305 87.2113 16.3996C87.2118 17.3687 86.8362 18.3001 86.1636 18.9977C85.491 19.6953 84.5739 20.1047 83.6055 20.1396" fill="#2C2E33"/>
</g>
<defs>
<clipPath id="clip0_2005_839">
<rect width="100" height="29.2453" fill="white"/>
</clipPath>
</defs>
</svg>
