<svg width="130" height="53" viewBox="0 0 130 53" fill="none" xmlns="http://www.w3.org/2000/svg">
<path d="M87.374 22.4942V23.3137C87.374 23.3137 86.6926 22.288 85.1417 22.288C83.5908 22.288 81.9868 23.4147 81.9868 26.0889C81.9868 28.7631 84.4535 29.4692 84.8392 29.4692C85.2249 29.4692 86.4337 29.5866 87.3399 28.6784V29.3845H89.068V22.4942H87.374ZM85.5846 27.9313C84.5462 27.9313 83.7053 27.0299 83.7053 25.9195C83.7053 24.8092 84.5407 23.9009 85.5846 23.9009C86.6286 23.9009 87.464 24.8023 87.464 25.9127C87.464 27.0231 86.6177 27.9313 85.5846 27.9313Z" fill="#2C2E33"/>
<path d="M98.6582 22.4942V23.3137C98.6582 23.3137 97.9768 22.288 96.4259 22.288C94.875 22.288 93.271 23.4147 93.271 26.0889C93.271 28.7631 95.7377 29.4692 96.1234 29.4692C96.509 29.4692 97.7178 29.5866 98.6241 28.6784V29.3845H100.352V22.4942H98.6582ZM96.8634 27.9313C95.8249 27.9313 94.984 27.0299 94.984 25.9195C94.984 24.8092 95.8249 23.9009 96.8634 23.9009C97.9018 23.9009 98.7427 24.8023 98.7427 25.9127C98.7427 27.0231 97.9005 27.9313 96.8634 27.9313Z" fill="#2C2E33"/>
<path d="M106.888 19.8706V23.3178C106.888 23.3178 106.207 22.2921 104.656 22.2921C103.105 22.2921 101.502 23.4189 101.502 26.0862C101.502 28.7536 103.969 29.4665 104.355 29.4665C104.74 29.4665 105.949 29.584 106.856 28.6757V29.3818H108.584V19.8706H106.888ZM105.093 27.9287C104.055 27.9287 103.214 27.0272 103.214 25.9169C103.214 24.8065 104.055 23.901 105.093 23.901C106.132 23.901 106.973 24.8024 106.973 25.9128C106.973 27.0231 106.131 27.9314 105.093 27.9314V27.9287Z" fill="#2C2E33"/>
<path d="M90.4661 19.8036H92.2214V29.3777H90.4497C90.4497 29.3777 90.4552 19.7927 90.4661 19.8036Z" fill="#2C2E33"/>
<path d="M110.104 22.4723H111.861V29.3776H110.089C110.089 29.3776 110.093 22.46 110.104 22.4723Z" fill="#2C2E33"/>
<path d="M111.022 21.5546C111.511 21.5546 111.907 21.1571 111.907 20.6668C111.907 20.1765 111.511 19.7791 111.022 19.7791C110.532 19.7791 110.136 20.1765 110.136 20.6668C110.136 21.1571 110.532 21.5546 111.022 21.5546Z" fill="#2C2E33"/>
<path d="M113.416 22.4833V29.3777H115.105V25.6669C115.105 25.6669 115.083 24.0184 116.704 23.8736C116.704 23.8736 117.795 23.6715 117.795 25.488V29.364H119.519V24.3557C119.519 24.3557 119.373 22.2934 117.27 22.2934C116.879 22.2776 116.489 22.3442 116.125 22.4889C115.761 22.6336 115.432 22.8531 115.158 23.1334V22.4942C115.158 22.4942 113.438 22.5051 113.416 22.4833Z" fill="#2C2E33"/>
<path d="M10.4937 22.4779V29.3723H12.1822V25.4197C12.1822 25.4197 12.2994 23.8559 13.793 23.8559C13.793 23.8559 14.8506 23.9228 14.8506 25.3187V29.3545H16.6127V25.32C16.6127 25.32 16.8471 23.8177 18.139 23.8177C19.431 23.8177 19.2797 25.1835 19.2797 25.1835V29.3368H20.975V24.42C20.975 24.42 20.8238 22.2921 18.8068 22.2921C16.7898 22.2921 16.4069 23.5363 16.4069 23.5363C16.1991 23.1621 15.8948 22.8506 15.5259 22.6344C15.157 22.4182 14.7369 22.3052 14.3095 22.3071C12.8104 22.3071 12.1958 23.3164 12.1958 23.3164V22.4751C12.1958 22.4751 10.4937 22.4601 10.4937 22.4779Z" fill="#2C2E33"/>
<path d="M22.4863 22.4942H24.198V29.3558H22.5013C22.5013 29.3558 22.5272 22.4519 22.4863 22.4942Z" fill="#2C2E33"/>
<path d="M28.9105 24.4623L29.9339 23.4708C29.9339 23.4708 29.2962 22.2935 27.6022 22.2935C25.9082 22.2935 25.5716 23.6893 25.5716 23.6893C25.5716 23.6893 25.051 25.2025 26.6455 26.0766C28.24 26.9507 28.642 27.019 28.4403 27.6568C28.2386 28.2947 26.914 28.027 26.2925 27.2471L25.269 28.3575C25.269 28.3575 26.1412 29.6358 27.669 29.5184C29.1967 29.4009 29.6491 28.6443 29.6491 28.6443C29.8925 28.341 30.0453 27.9748 30.0899 27.5882C30.1345 27.2015 30.0691 26.8101 29.9012 26.4591C29.9012 26.4591 29.4815 25.5672 27.8039 24.9294C27.8039 24.9294 26.73 24.6098 27.2329 23.9734C27.7357 23.3369 28.9105 24.4623 28.9105 24.4623Z" fill="#2C2E33"/>
<path d="M31.6963 19.9402H33.3889V22.4628H34.3783V23.9651H33.3753V29.3462H31.7304V23.9747H30.79V22.4723H31.68C31.68 22.4723 31.68 19.921 31.6963 19.9402Z" fill="#2C2E33"/>
<path d="M38.6264 22.2921C38.6264 22.2921 35.0518 22.258 35.0518 25.9579C35.0518 29.6577 38.76 29.5731 38.76 29.5731C38.76 29.5731 40.8042 29.6577 41.7295 28.0707L40.3395 27.3373C40.3395 27.3373 39.9197 27.9929 38.7627 28.0434C38.2716 28.0812 37.7839 27.9356 37.3936 27.6345C37.0033 27.3333 36.7381 26.8981 36.649 26.4127L42.2024 26.3785C42.2024 26.3785 42.5363 22.4601 38.6264 22.2921ZM36.7471 25.0496C36.8853 24.6636 37.1412 24.3309 37.4784 24.0985C37.8157 23.8662 38.2173 23.7459 38.6264 23.7549C39.0377 23.7487 39.4402 23.8742 39.7753 24.1133C40.1104 24.3523 40.3605 24.6923 40.4894 25.0838L36.7471 25.0496Z" fill="#2C2E33"/>
<path d="M43.2012 22.4943H44.6785V23.3014C44.6785 23.3014 45.4675 21.8209 46.8767 22.482L46.3561 23.9843C46.3561 23.9843 45.4021 23.2113 44.9469 24.8926V29.3491H43.2584C43.2584 29.3491 43.2243 22.4943 43.2012 22.4943Z" fill="#2C2E33"/>
<path d="M23.4024 21.5546C23.8917 21.5546 24.2883 21.1571 24.2883 20.6668C24.2883 20.1765 23.8917 19.7791 23.4024 19.7791C22.9132 19.7791 22.5166 20.1765 22.5166 20.6668C22.5166 21.1571 22.9132 21.5546 23.4024 21.5546Z" fill="#2C2E33"/>
<path d="M56.7734 16.9806C56.7722 17.4339 56.8607 17.8828 57.0339 18.3015C57.207 18.7202 57.4612 19.1004 57.7819 19.4199L58.3938 20.0331C59.9502 18.5739 61.9997 17.7587 64.131 17.7514C66.2623 17.744 68.3174 18.545 69.8837 19.9935L70.497 19.3789C71.201 18.6715 72.1413 18.2502 73.1367 18.1962L66.3908 11.437C65.7989 10.8439 64.9962 10.5107 64.1592 10.5107C63.3222 10.5107 62.5195 10.8439 61.9276 11.437L56.8007 16.575C56.7838 16.7096 56.7747 16.845 56.7734 16.9806Z" fill="#2C2E33"/>
<path d="M54.9432 33.6171C55.3954 33.6183 55.8434 33.5296 56.2612 33.3561C56.679 33.1826 57.0583 32.9278 57.3772 32.6064L57.9891 31.9932C56.533 30.4335 55.7196 28.3794 55.7122 26.2435C55.7049 24.1076 56.5042 22.0481 57.9496 20.4784L57.3363 19.8638C56.6304 19.1582 56.21 18.2159 56.1561 17.2183L49.4115 23.9775C48.8198 24.5706 48.4873 25.3751 48.4873 26.2139C48.4873 27.0527 48.8198 27.8572 49.4115 28.4504L54.5384 33.5884C54.6727 33.6058 54.8078 33.6154 54.9432 33.6171Z" fill="#2C2E33"/>
<path d="M71.5479 35.4513C71.5491 34.9981 71.4606 34.5491 71.2875 34.1304C71.1143 33.7117 70.8601 33.3316 70.5394 33.012L69.9275 32.3988C68.3712 33.8581 66.3216 34.6732 64.1903 34.6806C62.059 34.6879 60.0039 33.8869 58.4376 32.4384L57.8243 33.053C57.1203 33.7604 56.18 34.1817 55.1846 34.2358L61.9291 40.995C62.521 41.588 63.3237 41.9212 64.1607 41.9212C64.9977 41.9212 65.8004 41.588 66.3923 40.995L71.5192 35.8569C71.5366 35.7224 71.5462 35.587 71.5479 35.4513Z" fill="#2C2E33"/>
<path d="M78.9068 23.9802L73.7799 18.8476C73.6443 18.8309 73.5077 18.8223 73.3711 18.8217C72.9188 18.8204 72.4709 18.9092 72.0531 19.0826C71.6353 19.2561 71.256 19.5109 70.9371 19.8323L70.3252 20.4456C71.7813 22.0053 72.5947 24.0593 72.602 26.1952C72.6094 28.3311 71.8101 30.3907 70.3647 31.9604L70.978 32.575C71.6839 33.2805 72.1042 34.2229 72.1582 35.2205L78.9068 28.4531C79.4986 27.8599 79.831 27.0554 79.831 26.2166C79.831 25.3778 79.4986 24.5734 78.9068 23.9802Z" fill="#2C2E33"/>
<path d="M60.9028 20.2858C60.9028 20.2858 63.0002 20.2598 64.1736 21.362C65.0929 20.6413 66.2281 20.2529 67.3953 20.2598C66.4536 19.6116 65.3405 19.2593 64.1981 19.2478C62.3351 19.2478 60.9028 20.2858 60.9028 20.2858Z" fill="#2C2E33"/>
<path d="M63.9337 21.4426C63.9337 21.4426 62.3869 20.264 60.3904 20.5713C59.479 21.2856 58.8122 22.2665 58.4824 23.3779C58.4824 23.3779 60.9791 21.7472 63.9337 21.4426Z" fill="#2C2E33"/>
<path d="M64.4062 21.4522C64.4062 21.4522 65.9149 20.2599 67.9223 20.5289C67.9223 20.5289 69.2143 21.4522 69.9038 23.397C68.2058 22.4164 66.3423 21.7571 64.4062 21.4522Z" fill="#2C2E33"/>
<path d="M58.4223 23.6565C58.4223 23.6565 61.0117 21.978 64.138 21.6324C64.138 21.6324 67.1552 22.0299 69.8536 23.5937C69.8536 23.5937 70.1602 24.3107 70.3646 25.7216C70.3646 25.7216 65.6207 24.0553 64.1502 23.453C64.1502 23.453 59.8928 25.1452 58.0762 25.6697C58.0775 25.6683 58.2438 23.9515 58.4223 23.6565Z" fill="#2C2E33"/>
<path d="M63.0503 24.0799C63.0503 24.0799 63.9198 23.7985 64.0983 23.6702C64.4521 23.8278 64.8164 23.9606 65.1885 24.0676L64.2169 24.7341L63.0503 24.0799Z" fill="#2C2E33"/>
<path d="M57.8594 25.6301C57.8594 25.6301 57.8594 24.9896 58.0134 24.6181L57.1821 23.5801L57.8594 25.6301Z" fill="#2C2E33"/>
<path d="M70.3208 24.6685C70.4183 24.9683 70.4827 25.2779 70.513 25.5918L71.2039 23.606L70.3208 24.6685Z" fill="#2C2E33"/>
<path d="M61.7205 27.7962C61.651 27.7939 61.5832 27.7739 61.5236 27.7381C61.4639 27.7022 61.4144 27.6518 61.3796 27.5914C61.3449 27.531 61.3261 27.4628 61.325 27.3931C61.3239 27.3234 61.3406 27.2546 61.3734 27.1931C61.4063 27.1317 61.4542 27.0797 61.5127 27.042C61.5712 27.0043 61.6384 26.9822 61.7078 26.9778C61.7772 26.9733 61.8466 26.9867 61.9094 27.0166C61.9722 27.0465 62.0263 27.092 62.0667 27.1488C62.0112 26.9494 61.8855 26.7769 61.7129 26.6633C61.5403 26.5496 61.3324 26.5024 61.1278 26.5305C60.9231 26.5586 60.7355 26.66 60.5998 26.816C60.464 26.9719 60.3892 27.1719 60.3892 27.3789C60.3892 27.5859 60.464 27.7859 60.5998 27.9419C60.7355 28.0979 60.9231 28.1993 61.1278 28.2273C61.3324 28.2554 61.5403 28.2083 61.7129 28.0946C61.8855 27.9809 62.0112 27.8084 62.0667 27.6091C62.0293 27.6669 61.978 27.7144 61.9175 27.7471C61.857 27.7798 61.7893 27.7967 61.7205 27.7962Z" fill="#2C2E33"/>
<path d="M67.2508 26.5232C67.0653 26.5238 66.885 26.5851 66.7374 26.6978C66.5898 26.8104 66.483 26.9683 66.4331 27.1474C66.4826 27.0755 66.5538 27.0214 66.6362 26.9929C66.7186 26.9644 66.808 26.9631 66.8912 26.9891C66.9744 27.0151 67.0472 27.0671 67.0988 27.1375C67.1505 27.2078 67.1783 27.2929 67.1783 27.3803C67.1783 27.4676 67.1505 27.5527 67.0988 27.6231C67.0472 27.6934 66.9744 27.7454 66.8912 27.7714C66.808 27.7974 66.7186 27.7961 66.6362 27.7676C66.5538 27.7391 66.4826 27.685 66.4331 27.6131C66.4772 27.7658 66.5629 27.9031 66.6805 28.0097C66.7981 28.1163 66.9431 28.1879 67.0991 28.2165C67.2551 28.2451 67.416 28.2296 67.5636 28.1716C67.7113 28.1137 67.8399 28.0156 67.9351 27.8885C68.0303 27.7613 68.0882 27.6101 68.1023 27.4518C68.1165 27.2935 68.0863 27.1344 68.0153 26.9923C67.9442 26.8502 67.835 26.7308 67.7 26.6475C67.5649 26.5641 67.4094 26.5202 67.2508 26.5205V26.5232Z" fill="#2C2E33"/>
<path d="M68.2538 30.3201C68.2538 30.3201 68.1557 29.6373 67.556 29.6086C67.4507 29.5914 67.3428 29.6162 67.2554 29.6778C67.1681 29.7393 67.1082 29.8326 67.0886 29.9377C67.3203 29.7793 67.4606 29.823 67.4606 29.823C67.4606 29.823 67.939 29.92 67.7536 30.3693C67.5683 30.8186 66.3908 30.6793 66.3908 30.6793C66.3908 30.6793 65.5254 30.5154 64.9749 30.6479C64.5208 30.7323 64.0552 30.7323 63.6011 30.6479C63.056 30.5114 62.1852 30.6793 62.1852 30.6793C62.1852 30.6793 61.0132 30.8227 60.8224 30.3693C60.6316 29.9159 61.1154 29.823 61.1154 29.823C61.1154 29.823 61.2517 29.7807 61.4874 29.9377C61.4678 29.8326 61.4079 29.7393 61.3206 29.6778C61.2332 29.6162 61.1254 29.5914 61.02 29.6086C60.4203 29.6427 60.3222 30.3201 60.3222 30.3201C60.3222 30.3201 60.1478 31.4278 61.7096 31.6941C63.2359 31.955 63.9364 31.7146 64.2812 31.5015C64.626 31.7146 65.3265 31.955 66.8528 31.6941C68.4282 31.4264 68.2538 30.3201 68.2538 30.3201Z" fill="#2C2E33"/>
<path d="M61.2611 28.5638C61.0155 28.5638 60.7755 28.4908 60.5713 28.3541C60.3671 28.2173 60.208 28.023 60.114 27.7957C60.0201 27.5683 59.9955 27.3182 60.0434 27.0768C60.0913 26.8354 60.2095 26.6137 60.3832 26.4397C60.5568 26.2657 60.778 26.1472 61.0188 26.0992C61.2597 26.0512 61.5093 26.0759 61.7362 26.17C61.963 26.2642 62.1569 26.4237 62.2933 26.6283C62.4298 26.8329 62.5026 27.0735 62.5026 27.3195C62.5022 27.6494 62.3713 27.9657 62.1385 28.1989C61.9058 28.4322 61.5902 28.5634 61.2611 28.5638ZM61.2611 26.2105C61.0425 26.2105 60.8288 26.2755 60.647 26.3972C60.4653 26.5189 60.3236 26.6919 60.2399 26.8943C60.1563 27.0967 60.1344 27.3194 60.177 27.5343C60.2197 27.7491 60.325 27.9465 60.4795 28.1014C60.6341 28.2563 60.831 28.3618 61.0454 28.4045C61.2598 28.4473 61.4821 28.4253 61.684 28.3415C61.886 28.2577 62.0586 28.1157 62.18 27.9335C62.3015 27.7514 62.3663 27.5372 62.3663 27.3182C62.3656 27.0248 62.2489 26.7436 62.0417 26.5362C61.8345 26.3289 61.5538 26.2123 61.2611 26.2119V26.2105Z" fill="#2C2E33"/>
<path d="M67.2288 28.5638C66.9833 28.5638 66.7432 28.4908 66.5391 28.3541C66.3349 28.2173 66.1758 28.023 66.0818 27.7957C65.9878 27.5683 65.9633 27.3182 66.0112 27.0768C66.0591 26.8354 66.1773 26.6137 66.3509 26.4397C66.5246 26.2657 66.7458 26.1472 66.9866 26.0992C67.2274 26.0512 67.4771 26.0759 67.7039 26.17C67.9308 26.2642 68.1247 26.4237 68.2611 26.6283C68.3975 26.8329 68.4703 27.0735 68.4703 27.3195C68.47 27.6494 68.3391 27.9657 68.1063 28.1989C67.8736 28.4322 67.558 28.5634 67.2288 28.5638ZM67.2288 26.2105C67.0102 26.2105 66.7965 26.2755 66.6148 26.3972C66.433 26.5189 66.2914 26.6919 66.2077 26.8943C66.1241 27.0967 66.1022 27.3194 66.1448 27.5343C66.1875 27.7491 66.2927 27.9465 66.4473 28.1014C66.6019 28.2563 66.7988 28.3618 67.0132 28.4045C67.2276 28.4473 67.4498 28.4253 67.6518 28.3415C67.8537 28.2577 68.0264 28.1157 68.1478 27.9335C68.2692 27.7514 68.3341 27.5372 68.3341 27.3182C68.3333 27.0248 68.2166 26.7436 68.0095 26.5362C67.8023 26.3289 67.5216 26.2123 67.2288 26.2119V26.2105Z" fill="#2C2E33"/>
</svg>
