<svg width="120" height="19" viewBox="0 0 120 19" fill="none" xmlns="http://www.w3.org/2000/svg">
<g clip-path="url(#clip0_2005_819)">
<path d="M8.718 12.4325H5.434V8.22281H7.568C7.972 8.22281 8.316 8.21278 8.72 8.19071C8.988 8.18046 9.2501 8.10876 9.4862 7.98111C9.72229 7.85346 9.9261 7.67325 10.082 7.45431C10.2547 7.22585 10.365 6.9561 10.402 6.67176C10.438 6.42294 10.442 6.21025 10.418 5.95743C10.376 5.50738 10.1675 5.08945 9.83357 4.786C9.49964 4.48255 9.06453 4.31561 8.614 4.31808H5.434V17.9666H0V0H8.88C9.234 0 9.532 0.00601963 9.886 0.0260851C12.244 0.152497 14.186 1.46678 15.184 3.61178C15.6939 4.67253 15.889 5.85802 15.746 7.02691C15.6254 8.26493 15.1134 9.43181 14.2847 10.3571C13.456 11.2823 12.3541 11.9175 11.14 12.1697C10.3459 12.3492 9.534 12.4374 8.72 12.4325" fill="#2C2E33"/>
<path d="M28.896 16.9613C28.824 15.9039 28.784 15.009 28.762 13.9475C28.734 12.5529 28.718 11.3791 28.708 9.98457C28.708 9.27057 28.6152 8.55961 28.432 7.86967C28.3221 7.41271 28.1175 6.98409 27.8314 6.61175C27.5454 6.2394 27.1844 5.93168 26.772 5.70863C26.2819 5.43038 25.7515 5.23066 25.2 5.1167C23.4472 4.72155 21.633 4.68538 19.866 5.01035C19.346 5.10065 18.912 5.22706 18.422 5.43172C17.8781 5.64729 17.3903 5.98454 16.9959 6.4178C16.6015 6.85106 16.3108 7.36889 16.146 7.93188C16.0094 8.35907 15.9677 8.81112 16.024 9.2562C16.032 9.34047 16.054 9.41271 16.092 9.49096L20.398 9.59731C20.3848 9.33658 20.4242 9.07585 20.514 8.83081C20.5784 8.64162 20.685 8.4697 20.8258 8.32817C20.9665 8.18663 21.1376 8.07922 21.326 8.01415C21.8774 7.80199 22.4856 7.79133 23.044 7.98405C23.229 8.0415 23.397 8.14392 23.5331 8.28218C23.6692 8.42045 23.7691 8.5903 23.824 8.77663C23.896 9.01742 23.86 9.2582 23.714 9.46488C23.594 9.64153 23.422 9.77621 23.222 9.85013C23.094 9.9003 22.982 9.93441 22.852 9.97052C22.2856 10.1255 21.7114 10.2507 21.132 10.3457C20.648 10.426 20.24 10.5003 19.76 10.5986C19.1422 10.7201 18.5324 10.8796 17.934 11.0761C17.3817 11.2492 16.8757 11.5456 16.454 11.943C15.8888 12.4466 15.525 13.1389 15.43 13.8913C15.356 14.415 15.374 14.8705 15.49 15.3862C15.6242 16.0286 15.9323 16.6214 16.3804 17.0996C16.8285 17.5778 17.3992 17.9229 18.03 18.097C19.4222 18.5246 20.9199 18.4486 22.262 17.8823C22.9177 17.6264 23.4955 17.2031 23.938 16.6543L23.634 14.4471C23.4313 14.7719 23.1338 15.0262 22.782 15.1755C22.442 15.326 22.132 15.4062 21.762 15.4444C21.452 15.4745 21.184 15.4524 20.884 15.3681C20.6511 15.3076 20.4406 15.1808 20.278 15.0029C20.1353 14.8535 20.0381 14.6662 19.998 14.4632C19.9639 14.3084 19.9731 14.1473 20.0246 13.9975C20.0762 13.8477 20.168 13.7151 20.29 13.6144C20.4486 13.4757 20.6318 13.3682 20.83 13.2974C21.3036 13.1216 21.7839 12.965 22.27 12.8278C22.888 12.6533 23.398 12.4647 23.984 12.1938C24.04 12.6633 24.038 13.0646 23.972 13.5321C23.926 13.8753 23.82 14.1582 23.634 14.4471L23.938 16.6543C24.032 16.9673 24.118 17.2282 24.226 17.5372C24.286 17.7078 24.366 17.8402 24.486 17.9746H29.226C29.0297 17.6723 28.9159 17.3236 28.896 16.9633" fill="#2C2E33"/>
<path d="M34.5662 6.48918C35.16 5.96049 35.8294 5.52423 36.5522 5.19496C37.7319 4.62675 39.082 4.52642 40.3322 4.91404C41.005 5.09996 41.6197 5.45409 42.1188 5.94329C42.618 6.43249 42.9852 7.04076 43.1862 7.71116C43.3931 8.34784 43.4958 9.01395 43.4902 9.68359V17.9666H38.4102V10.5183C38.4102 10.2695 38.3782 10.0568 38.3062 9.82004C38.2468 9.61438 38.1416 9.42496 37.9985 9.2661C37.8554 9.10724 37.6782 8.98309 37.4802 8.90305C37.0494 8.71694 36.5655 8.69585 36.1202 8.84377C35.6749 8.9917 35.2992 9.29837 35.0642 9.70566C34.8628 10.0401 34.7588 10.4245 34.7642 10.8153V17.9666H29.8442V5.13275H34.4582L34.5662 6.48918Z" fill="#2C2E33"/>
<path d="M57.6162 16.9613C57.5442 15.9039 57.5042 15.009 57.4822 13.9475C57.4542 12.5529 57.4382 11.3791 57.4282 9.98457C57.4282 9.27057 57.3354 8.55961 57.1522 7.86967C57.0423 7.41271 56.8377 6.98409 56.5517 6.61175C56.2656 6.2394 55.9047 5.93168 55.4922 5.70863C55.0021 5.43038 54.4717 5.23066 53.9202 5.1167C52.1675 4.72155 50.3532 4.68538 48.5862 5.01035C48.0662 5.10065 47.6322 5.22706 47.1422 5.43172C46.5983 5.64729 46.1105 5.98454 45.7161 6.4178C45.3217 6.85106 45.031 7.36889 44.8662 7.93188C44.7296 8.35907 44.6879 8.81112 44.7442 9.2562C44.7522 9.34047 44.7742 9.41271 44.8122 9.49096L49.1182 9.59731C49.105 9.33658 49.1444 9.07585 49.2342 8.83081C49.2986 8.64162 49.4053 8.4697 49.546 8.32817C49.6867 8.18663 49.8578 8.07922 50.0462 8.01415C50.5976 7.80199 51.2058 7.79133 51.7642 7.98405C51.9492 8.0415 52.1172 8.14392 52.2533 8.28218C52.3894 8.42045 52.4893 8.5903 52.5442 8.77663C52.6162 9.01742 52.5802 9.2582 52.4342 9.46488C52.3142 9.64153 52.1422 9.77621 51.9422 9.85013C51.8142 9.9003 51.7022 9.93441 51.5722 9.97052C51.0058 10.1255 50.4317 10.2507 49.8522 10.3457C49.3682 10.426 48.9602 10.5003 48.4802 10.5986C47.8624 10.7201 47.2526 10.8796 46.6542 11.0761C46.102 11.2492 45.596 11.5456 45.1742 11.943C44.609 12.4466 44.2452 13.1389 44.1502 13.8913C44.0762 14.415 44.0942 14.8705 44.2102 15.3862C44.3445 16.0286 44.6525 16.6214 45.1006 17.0996C45.5487 17.5778 46.1194 17.9229 46.7502 18.097C48.1424 18.5246 49.6401 18.4486 50.9822 17.8823C51.6379 17.6264 52.2157 17.2031 52.6582 16.6543L52.3542 14.4471C52.1515 14.7719 51.854 15.0262 51.5022 15.1755C51.1622 15.326 50.8522 15.4062 50.4822 15.4444C50.1722 15.4745 49.9042 15.4524 49.6042 15.3681C49.3713 15.3076 49.1608 15.1808 48.9982 15.0029C48.8555 14.8535 48.7584 14.6662 48.7182 14.4632C48.6841 14.3084 48.6933 14.1473 48.7448 13.9975C48.7964 13.8477 48.8882 13.7151 49.0102 13.6144C49.1688 13.4757 49.352 13.3682 49.5502 13.2974C50.0238 13.1216 50.5042 12.965 50.9902 12.8278C51.6082 12.6533 52.1182 12.4647 52.7042 12.1938C52.7602 12.6633 52.7582 13.0646 52.6922 13.5321C52.6462 13.8753 52.5402 14.1582 52.3542 14.4471L52.6582 16.6543C52.7522 16.9673 52.8382 17.2282 52.9462 17.5372C53.0062 17.7078 53.0862 17.8402 53.2062 17.9746H57.9462C57.75 17.6723 57.6362 17.3236 57.6162 16.9633" fill="#2C2E33"/>
<path d="M64.7161 13.2492C65.0821 13.3114 65.3881 13.3897 65.7401 13.5061C65.8812 13.5504 66.0078 13.6321 66.1064 13.7427C66.205 13.8533 66.2719 13.9885 66.3001 14.1341C66.3364 14.2911 66.3318 14.4549 66.2866 14.6095C66.2414 14.7642 66.1572 14.9045 66.0421 15.017C65.8151 15.2532 65.5159 15.4065 65.1921 15.4524C64.7401 15.5247 64.3401 15.4885 63.9121 15.332C63.7127 15.2627 63.5277 15.1573 63.3661 15.021C63.1538 14.8459 62.9985 14.6111 62.9201 14.3468C62.8505 14.1257 62.818 13.8944 62.8241 13.6626H58.1401V13.9355C58.1401 14.3769 58.2081 14.7521 58.3621 15.1675C58.5981 15.7895 58.9201 16.2711 59.4061 16.7246C60.0052 17.2974 60.7374 17.7112 61.5361 17.9285C63.1809 18.4186 64.915 18.5284 66.6081 18.2495C67.4029 18.1346 68.1721 17.8835 68.8821 17.5071C69.1972 17.3445 69.4925 17.1458 69.7621 16.9152C70.3763 16.413 70.8232 15.7348 71.0434 14.9712C71.2635 14.2076 71.2463 13.3948 70.9941 12.6412C70.8189 12.0712 70.4843 11.5635 70.0301 11.1785C69.4198 10.6368 68.6949 10.2409 67.9101 10.0207L67.3981 9.87423C66.4472 9.60543 65.4798 9.39899 64.5021 9.25621C64.2261 9.21608 63.9941 9.17194 63.7221 9.10773C63.603 9.0795 63.4871 9.03916 63.3761 8.98733C63.3076 8.95651 63.2457 8.91244 63.1942 8.85764C63.1426 8.80284 63.1023 8.73838 63.0755 8.66795C63.0488 8.59751 63.0361 8.52249 63.0383 8.44715C63.0405 8.37181 63.0574 8.29763 63.0881 8.22886L63.1101 8.18472C63.1819 8.05205 63.2797 7.93531 63.3976 7.84152C63.5154 7.74773 63.651 7.67882 63.7961 7.63894C64.3321 7.48443 64.8241 7.49848 65.3501 7.67505C65.5924 7.75531 65.8017 7.91335 65.9455 8.12477C66.0894 8.3362 66.1599 8.58925 66.1461 8.84487H70.6621C70.6621 8.31621 70.5687 7.79173 70.3861 7.29582C70.2101 6.78624 69.8888 6.33973 69.4621 6.01163C69.0992 5.71879 68.6921 5.48579 68.2561 5.32138C67.8339 5.15456 67.3956 5.03217 66.9481 4.95619C65.888 4.76592 64.8088 4.70528 63.7341 4.7756C63.0861 4.81172 62.5401 4.89198 61.9061 5.04046C61.0541 5.24112 60.3661 5.5722 59.6781 6.11396C59.1125 6.54702 58.6896 7.1405 58.4641 7.81752C58.1909 8.63519 58.2207 9.52429 58.5481 10.3217C58.7188 10.772 58.9825 11.181 59.3221 11.5216C59.6616 11.8623 60.0693 12.1269 60.5181 12.2981C60.9921 12.4867 61.4061 12.6112 61.9061 12.7135C62.8921 12.9182 63.7261 13.0767 64.7181 13.2472M80.0601 4.88797C79.5541 4.8077 79.1221 4.77359 78.6101 4.77359C78.0981 4.77359 77.6681 4.8077 77.1601 4.88797C75.7507 5.08972 74.4431 5.74037 73.4301 6.74402C72.3112 7.78955 71.6258 9.21943 71.5101 10.7491C71.4179 11.677 71.5028 12.614 71.7601 13.5101C72.1601 14.9588 72.9161 16.0785 74.1061 16.9914C74.8459 17.5745 75.7107 17.9771 76.6321 18.1673C77.2819 18.3134 77.9462 18.3848 78.6121 18.38C79.3121 18.38 79.9041 18.3198 80.5901 18.1673C81.5116 17.977 82.3763 17.5745 83.1161 16.9914L80.3681 13.9856C80.2643 14.2172 80.1161 14.426 79.9318 14.6C79.7476 14.7741 79.531 14.91 79.2943 15C79.0577 15.09 78.8057 15.1323 78.5527 15.1246C78.2998 15.1168 78.0509 15.0591 77.8201 14.9548C77.387 14.7667 77.0416 14.4202 76.8541 13.9856C76.6745 13.5927 76.5526 13.1756 76.4921 12.7476C76.3561 11.8447 76.3721 11.0621 76.5461 10.1672C76.6361 9.70367 76.7921 9.32443 77.0501 8.92714C77.2203 8.66801 77.4519 8.45531 77.7241 8.30814C77.9964 8.16096 78.3009 8.08392 78.6101 8.08392C78.9194 8.08392 79.2239 8.16096 79.4961 8.30814C79.7684 8.45531 80 8.66801 80.1701 8.92714C80.4209 9.30154 80.5925 9.72359 80.6741 10.1672C80.8481 11.0641 80.8661 11.8467 80.7301 12.7476C80.6621 13.1991 80.5541 13.5703 80.3681 13.9856L83.1161 16.9914C84.2693 16.1322 85.0961 14.9042 85.4601 13.5101C85.7221 12.567 85.7981 11.7243 85.7101 10.7491C85.5949 9.21933 84.9094 7.78931 83.7901 6.74402C82.7774 5.74001 81.4697 5.08931 80.0601 4.88797Z" fill="#2C2E33"/>
<path d="M91.1439 6.48918C91.7376 5.96049 92.4071 5.52423 93.1299 5.19496C94.3096 4.62675 95.6596 4.52642 96.9099 4.91404C97.5826 5.09996 98.1973 5.45409 98.6965 5.94329C99.1956 6.43249 99.5629 7.04076 99.7639 7.71116C99.9708 8.34784 100.073 9.01395 100.068 9.68359V17.9666H94.9879V10.5183C94.9879 10.2695 94.9559 10.0568 94.8839 9.82004C94.8245 9.61438 94.7192 9.42496 94.5761 9.2661C94.433 9.10724 94.2558 8.98309 94.0579 8.90305C93.6271 8.71694 93.1431 8.69585 92.6979 8.84377C92.2526 8.9917 91.8768 9.29837 91.6419 9.70566C91.4404 10.0401 91.3365 10.4245 91.3419 10.8153V17.9666H86.4219V5.13275H91.0359L91.1439 6.48918Z" fill="#2C2E33"/>
<path d="M101.052 0V3.39106H105.834V0H101.052ZM101.052 5.13474V17.9686H105.834V5.13474H101.052ZM118.68 16.3032C117.768 17.2922 116.563 17.96 115.244 18.2074C114.316 18.396 113.504 18.4361 112.562 18.3378C111.366 18.2305 110.226 17.7837 109.274 17.0496C108.485 16.472 107.828 15.7317 107.348 14.8785C106.964 14.2254 106.707 13.5049 106.592 12.7556C106.412 11.664 106.46 10.7049 106.746 9.63743C107.4 7.20951 109.218 5.4899 111.672 4.97823C113.072 4.68728 114.316 4.71738 115.702 5.07655C116.646 5.30934 117.512 5.78597 118.216 6.45906C118.666 6.87105 119.039 7.36113 119.316 7.90578C119.66 8.5447 119.817 9.26799 119.77 9.99258H115.396C115.355 9.7119 115.259 9.44215 115.113 9.19897C114.968 8.9558 114.776 8.74403 114.548 8.57597C114.258 8.3481 113.905 8.21608 113.537 8.19811C113.169 8.18014 112.804 8.2771 112.494 8.47564C112.06 8.73685 111.739 9.15117 111.594 9.63743C111.219 10.7791 111.2 12.0079 111.538 13.1609C111.667 13.6494 111.933 14.0906 112.304 14.4331C112.509 14.6358 112.759 14.7869 113.034 14.8741C113.308 14.9613 113.6 14.982 113.884 14.9347C114.242 14.8884 114.571 14.7113 114.808 14.4371C115.061 14.1618 115.228 13.8178 115.288 13.4479C115.336 13.177 115.362 12.9462 115.378 12.6713H119.988C120.042 13.3354 119.954 14.0035 119.728 14.6302C119.502 15.2569 119.145 15.8275 118.68 16.3032Z" fill="#2C2E33"/>
</g>
<defs>
<clipPath id="clip0_2005_819">
<rect width="120" height="18.4" fill="white"/>
</clipPath>
</defs>
</svg>
