<svg width="110" height="29" viewBox="0 0 110 29" fill="none" xmlns="http://www.w3.org/2000/svg">
<g clip-path="url(#clip0_2005_688)">
<path d="M20.5618 17.2089C19.6883 16.6711 18.6803 16.5366 17.6724 16.5366C16.866 16.5366 15.5893 15.9989 15.5893 14.4528C15.5893 13.915 15.7909 13.3772 16.1941 12.9739C16.5972 12.5705 17.1348 12.3689 17.6724 12.3689C18.6803 12.3016 19.6883 12.1672 20.5618 11.6966C21.3682 11.2261 22.0401 10.5539 22.5105 9.7472C22.9809 8.94054 23.1825 8.06665 23.1825 7.12554C23.1825 6.18442 22.9137 5.31054 22.5105 4.50387C22.0401 3.6972 21.3682 3.02498 20.5618 2.55442C19.7555 2.08387 18.8819 1.8822 17.9412 1.8822C17.0004 1.8822 16.1269 2.15109 15.3205 2.55442C14.5142 3.02498 13.8422 3.6972 13.3718 4.50387C12.9015 5.31054 12.6999 6.18442 12.6327 7.12554C12.6327 8.13387 12.9687 9.07498 13.439 9.94887C13.8422 10.6883 14.0438 12.0328 12.6999 12.8394C12.2295 13.1083 11.6247 13.1755 11.0872 13.0411C10.5496 12.9066 10.0792 12.5705 9.81044 12.1C9.27287 11.2933 8.66811 10.4866 7.79456 9.94887C6.98821 9.47831 6.11466 9.27665 5.17391 9.27665C4.23317 9.27665 3.35962 9.54554 2.55326 9.94887C1.74691 10.4194 1.07495 11.0916 0.604578 11.8983C0.134205 12.705 -0.0673828 13.5789 -0.0673828 14.52C-0.0673828 15.4611 0.201402 16.335 0.604578 17.1416C1.07495 17.9483 1.74691 18.6205 2.55326 19.0911C3.35962 19.5616 4.23317 19.7633 5.17391 19.7633C6.11466 19.7633 6.98821 19.4944 7.79456 19.0911C8.66811 18.5533 9.34007 17.8139 9.81044 16.94C10.2136 16.2678 11.2888 15.3939 12.6327 16.1333C13.1031 16.4022 13.439 16.8728 13.5734 17.4105C13.7078 17.9483 13.6406 18.4861 13.3718 19.0239C12.9015 19.8978 12.5655 20.8389 12.5655 21.8472C12.5655 22.7883 12.8343 23.6622 13.2374 24.4689C13.7078 25.2755 14.3798 25.9478 15.1861 26.4183C15.9925 26.8889 16.866 27.0905 17.8068 27.0905C18.7475 27.0905 19.6211 26.8216 20.4274 26.4183C21.2338 25.9478 21.9057 25.2755 22.3761 24.4689C22.8465 23.6622 23.0481 22.7883 23.0481 21.8472C23.0481 20.9061 22.7793 20.0322 22.3761 19.2255C22.0401 18.3516 21.3682 17.6794 20.5618 17.2089Z" fill="#2C2E33"/>
<path d="M30.4398 6.45333H34.0683V8.20111C34.5387 7.59611 35.1435 7.12556 35.8826 6.78944C36.5546 6.45333 37.361 6.31889 38.1001 6.31889C38.6377 6.31889 39.1752 6.38611 39.6456 6.52056V10.6883C39.6456 10.6883 39.1081 10.4867 37.8985 10.4867C35.8154 10.4867 34.4043 11.8983 34.4043 13.9822V22.5194H30.3726V6.45333H30.4398ZM50.1282 6.45333H53.7568V7.99944C55.0335 6.92389 56.6462 6.25167 58.2589 6.25167C62.2907 6.25167 65.7849 9.74722 65.7849 14.4528C65.7849 19.1583 62.2907 22.6539 58.2589 22.6539C56.7134 22.6539 55.2351 22.1161 54.0928 21.1078V28.2333H50.061V6.45333H50.1282ZM61.7531 14.4528C61.7531 11.8311 60.006 10.0833 57.7886 10.0833C55.5039 10.0833 53.7568 11.8311 53.7568 14.4528C53.7568 17.0744 55.5039 18.8222 57.7886 18.8222C60.0732 18.8222 61.7531 17.0744 61.7531 14.4528ZM68.7415 6.45333H72.3701V7.99944C73.6468 6.92389 75.2595 6.25167 76.8723 6.25167C80.904 6.25167 84.3982 9.74722 84.3982 14.4528C84.3982 19.1583 80.904 22.6539 76.8723 22.6539C75.3267 22.6539 73.8484 22.1161 72.7061 21.1078V28.2333H68.6743V6.45333H68.7415ZM80.3664 14.4528C80.3664 11.8311 78.6194 10.0833 76.4019 10.0833C74.1172 10.0833 72.3701 11.8311 72.3701 14.4528C72.3701 17.0744 74.1172 18.8222 76.4019 18.8222C78.6866 18.8222 80.3664 17.0744 80.3664 14.4528ZM87.3549 0.537778H91.3866V22.4522H87.3549V0.537778ZM94.3432 14.4528C94.3432 9.94889 97.9718 6.25167 102.34 6.25167C106.506 6.25167 110 9.54556 110 14.4528C110 14.9906 109.933 15.5283 109.798 15.9989H98.6438C98.9798 17.545 100.257 18.755 102.272 18.755C104.154 18.755 104.893 17.8811 104.893 17.8811H109.261C108.454 19.965 105.968 22.5867 102.272 22.5867C97.9718 22.6539 94.3432 19.0239 94.3432 14.4528ZM106.17 13.2428C105.968 12.3689 105.498 11.5622 104.826 11.0244C104.154 10.4867 103.28 10.1506 102.34 10.1506C101.466 10.1506 100.592 10.4867 99.8533 11.0244C99.1814 11.5622 98.6438 12.3689 98.5094 13.2428H106.17ZM41.9975 2.28556C41.9975 1.68056 42.2663 1.07556 42.6694 0.672222C43.0726 0.268889 43.6774 0 44.2822 0C44.8869 0 45.4917 0.268889 45.8949 0.672222C46.298 1.07556 46.5668 1.68056 46.5668 2.28556C46.5668 2.89056 46.298 3.49556 45.8949 3.89889C45.4917 4.30222 44.8869 4.57111 44.2822 4.57111C43.6774 4.57111 43.0726 4.30222 42.6694 3.89889C42.2663 3.42833 41.9975 2.89056 41.9975 2.28556ZM42.2663 6.45333H46.298V22.4522H42.2663V6.45333Z" fill="#2C2E33"/>
</g>
<defs>
<clipPath id="clip0_2005_688">
<rect width="110" height="28.2333" fill="white"/>
</clipPath>
</defs>
</svg>
