<svg width="120" height="19" viewBox="0 0 120 19" fill="none" xmlns="http://www.w3.org/2000/svg">
<g clip-path="url(#clip0_2005_769)">
<path d="M4.55947 5.41944C4.47137 5.06644 4.49339 4.71345 4.53745 4.51488C4.64758 3.96333 5.02203 3.36764 6.10132 3.36764C7.11454 3.36764 7.68722 3.98539 7.68722 4.93407C7.68722 5.24294 7.68722 5.99306 7.68722 5.99306H11.9604V4.77963C11.9824 1.02903 8.61234 0.43335 6.18943 0.43335C3.14978 0.43335 0.660793 1.44822 0.198238 4.25014C0.0660793 5.02232 0.0440529 5.70625 0.242291 6.56668C0.991189 10.0746 7.09251 11.0895 7.97357 13.3178C8.14978 13.7369 8.0837 14.2664 8.01762 14.5974C7.88546 15.171 7.48899 15.7667 6.34361 15.7667C5.26432 15.7667 4.62555 15.1489 4.62555 14.2003V12.5456H0V13.8693C0 17.7082 3.01762 18.8554 6.23348 18.8554C9.33921 18.8554 11.8722 17.7964 12.2907 14.9283C12.489 13.4501 12.3348 12.4794 12.2687 12.1264C11.5639 8.48611 5.04405 7.42711 4.55947 5.41944ZM60.3524 5.4415C60.2863 5.11057 60.3084 4.73551 60.3304 4.55901C60.4626 4.00745 60.815 3.41177 61.8943 3.41177C62.8855 3.41177 63.4581 4.02951 63.4581 4.95613C63.4581 5.265 63.4581 6.01512 63.4581 6.01512H67.6872V4.82376C67.6872 1.11728 64.3833 0.543661 61.9824 0.543661C58.9648 0.543661 56.4978 1.53647 56.0352 4.31632C55.9251 5.06644 55.8811 5.75038 56.0793 6.61081C56.8062 10.0746 62.8414 11.0895 63.7225 13.2957C63.8766 13.7149 63.8326 14.2444 63.7445 14.5533C63.6123 15.1269 63.2379 15.7005 62.0925 15.7005C61.0352 15.7005 60.3745 15.0827 60.3745 14.1561V12.5015H55.815V13.8031C55.815 17.5979 58.7885 18.7451 61.9824 18.7451C65.0441 18.7451 67.5771 17.6861 67.9736 14.8621C68.1718 13.3839 68.0176 12.4353 67.9515 12.0823C67.2687 8.50817 60.837 7.44918 60.3524 5.4415ZM99.2952 14.818L95.2643 0.984908H88.8987V17.995H93.1057L92.8634 3.72064L97.2026 17.995H103.304V0.984908H99.0749L99.2952 14.818ZM18.37 0.984908L15.1762 18.1715H19.8018L22.2026 2.26452L24.5374 18.1715H29.141L25.9912 0.984908H18.37ZM44.2731 0.984908L42.1145 14.4209L39.9559 0.984908H32.9515L32.5771 18.1715H36.8722L36.9824 2.26452L39.9339 18.1715H44.2731L47.2247 2.26452L47.3348 18.1715H51.63L51.2555 0.984908H44.2731ZM84.141 0.984908H79.8018V13.6928C79.8018 13.9134 79.8018 14.1561 79.7577 14.3547C79.6696 14.7739 79.3172 15.6122 78.1057 15.6122C76.9163 15.6122 76.5639 14.7959 76.4758 14.3547C76.4317 14.1782 76.4317 13.9134 76.4317 13.6928V0.984908H72.0925V13.2957C72.0925 13.6046 72.1145 14.2664 72.1366 14.4209C72.4449 17.6199 74.9559 18.6789 78.1057 18.6789C81.2555 18.6789 83.7885 17.642 84.0969 14.4209C84.1189 14.2444 84.163 13.6046 84.141 13.2957V0.984908ZM113.921 8.50817V11.0233H115.683V13.5163C115.683 13.7369 115.683 13.9796 115.639 14.1782C115.573 14.6415 115.132 15.4357 113.877 15.4357C112.643 15.4357 112.203 14.6415 112.137 14.1782C112.115 13.9796 112.093 13.7369 112.093 13.5163V5.66213C112.093 5.37532 112.115 5.08851 112.181 4.84582C112.269 4.42663 112.643 3.61033 113.877 3.61033C115.198 3.61033 115.507 4.47076 115.595 4.84582C115.639 5.08851 115.639 5.50769 115.639 5.50769V6.45637H119.956V5.88275C119.956 5.88275 119.978 5.28707 119.934 4.73551C119.604 1.53647 116.938 0.521599 113.899 0.521599C110.859 0.521599 108.26 1.55853 107.885 4.75757C107.841 5.04438 107.797 5.57388 107.797 5.90481V13.1192C107.797 13.4281 107.797 13.6708 107.863 14.2444C108.15 17.3772 110.859 18.4804 113.899 18.4804C116.96 18.4804 119.648 17.3772 119.934 14.2444C119.978 13.6708 120 13.4281 120 13.1192V8.50817H113.921Z" fill="#2C2E33"/>
</g>
<defs>
<clipPath id="clip0_2005_769">
<rect width="120" height="18.4" fill="white" transform="translate(0 0.43335)"/>
</clipPath>
</defs>
</svg>
