<svg width="120" height="37" viewBox="0 0 120 37" fill="none" xmlns="http://www.w3.org/2000/svg">
<path d="M29.1107 16.0022C23.397 12.6052 13.9724 12.2928 8.51791 13.9501C7.64197 14.2161 6.71576 13.7211 6.45036 12.8442C6.18495 11.9669 6.67889 11.0403 7.5554 10.7737C13.8168 8.87085 24.2252 9.2385 30.803 13.1474C31.591 13.6155 31.8495 14.6341 31.3823 15.4218C30.915 16.2104 29.8966 16.4703 29.1107 16.0022ZM28.9236 21.0335C28.5229 21.6848 27.6724 21.8888 27.0228 21.4892C22.2593 18.5578 14.9955 17.7086 9.35986 19.4212C8.62904 19.6423 7.85711 19.2298 7.6352 18.4995C7.41492 17.7678 7.82718 16.9964 8.55669 16.774C14.9946 14.8183 22.9978 15.7655 28.4689 19.1315C29.1186 19.532 29.323 20.3839 28.9236 21.0335ZM26.7547 25.8655C26.4363 26.3883 25.756 26.5523 25.2357 26.2336C21.0732 23.6868 15.834 23.1115 9.66396 24.5225C9.0693 24.659 8.47681 24.2859 8.34113 23.6908C8.20496 23.0956 8.57612 22.5025 9.17209 22.3667C15.9242 20.8214 21.7162 21.4865 26.3883 24.3446C26.9092 24.663 27.0732 25.3443 26.7547 25.8655ZM18.6256 0.270611C8.83615 0.270611 0.899902 8.21522 0.899902 18.0156C0.899902 27.8168 8.83615 35.7612 18.6256 35.7612C28.4154 35.7612 36.3512 27.8168 36.3512 18.0156C36.3512 8.21522 28.4154 0.270611 18.6256 0.270611Z" fill="#2C2E33"/>
<path d="M49.1251 16.6525C46.0646 15.9219 45.5196 15.409 45.5196 14.3318C45.5196 13.3136 46.4772 12.6287 47.9008 12.6287C49.2809 12.6287 50.6491 13.1489 52.084 14.2199C52.1274 14.2523 52.1818 14.2652 52.2353 14.2568C52.2889 14.2487 52.3361 14.2195 52.3676 14.175L53.862 12.0661C53.9234 11.9794 53.9066 11.8595 53.8239 11.7932C52.1164 10.4215 50.1936 9.75469 47.9461 9.75469C44.6416 9.75469 42.3334 11.7398 42.3334 14.5805C42.3334 17.6267 44.3245 18.7052 47.7654 19.5377C50.694 20.2131 51.1882 20.7787 51.1882 21.7903C51.1882 22.911 50.1887 23.6078 48.5803 23.6078C46.794 23.6078 45.3367 23.0054 43.7067 21.5921C43.6662 21.5574 43.6108 21.5413 43.5596 21.5442C43.5058 21.5487 43.4565 21.5737 43.4222 21.615L41.7466 23.6113C41.6764 23.6942 41.6853 23.8179 41.7663 23.8895C43.6631 25.5846 45.9954 26.48 48.5125 26.48C52.0734 26.48 54.3744 24.5321 54.3744 21.5173C54.3744 18.9695 52.8538 17.5604 49.1251 16.6525Z" fill="#2C2E33"/>
<path d="M65.0157 20.0673C65.0157 22.2188 63.6919 23.72 61.7965 23.72C59.9226 23.72 58.5091 22.1506 58.5091 20.0673C58.5091 17.9844 59.9226 16.4146 61.7965 16.4146C63.6615 16.4146 65.0157 17.9504 65.0157 20.0673ZM62.4308 13.6308C60.8874 13.6308 59.6214 14.2394 58.5774 15.4864V14.0828C58.5774 13.972 58.4877 13.8817 58.377 13.8817H55.6368C55.5261 13.8817 55.4365 13.972 55.4365 14.0828V29.6792C55.4365 29.79 55.5261 29.8802 55.6368 29.8802H58.377C58.4877 29.8802 58.5774 29.79 58.5774 29.6792V24.7563C59.6216 25.9294 60.8878 26.5023 62.4308 26.5023C65.2987 26.5023 68.2019 24.2922 68.2019 20.0673C68.2019 15.8415 65.2987 13.6308 62.4308 13.6308Z" fill="#2C2E33"/>
<path d="M75.6435 23.7425C73.679 23.7425 72.198 22.1624 72.198 20.0673C72.198 17.9634 73.6278 16.4366 75.5982 16.4366C77.5754 16.4366 79.0663 18.0167 79.0663 20.1132C79.0663 22.2168 77.6268 23.7425 75.6435 23.7425ZM75.6435 13.6308C71.9501 13.6308 69.0566 16.478 69.0566 20.1132C69.0566 23.709 71.9302 26.5263 75.5982 26.5263C79.3047 26.5263 82.207 23.6887 82.207 20.0673C82.207 16.458 79.3246 13.6308 75.6435 13.6308Z" fill="#2C2E33"/>
<path d="M90.0944 13.8817H87.0788V10.7951C87.0788 10.6843 86.9894 10.5942 86.8787 10.5942H84.1387C84.0278 10.5942 83.9376 10.6843 83.9376 10.7951V13.8817H82.62C82.5095 13.8817 82.4204 13.9719 82.4204 14.0828V16.4405C82.4204 16.5513 82.5095 16.6415 82.62 16.6415H83.9376V22.7425C83.9376 25.208 85.1634 26.458 87.5808 26.458C88.5638 26.458 89.3794 26.2548 90.1479 25.8185C90.2104 25.7836 90.2493 25.7162 90.2493 25.6445V23.3993C90.2493 23.3299 90.2131 23.2647 90.1541 23.2282C90.0944 23.1908 90.0201 23.1889 89.9589 23.2192C89.431 23.485 88.9207 23.6078 88.3502 23.6078C87.4712 23.6078 87.0788 23.2083 87.0788 22.3126V16.6415H90.0944C90.2051 16.6415 90.2942 16.5513 90.2942 16.4405V14.0828C90.2942 13.9719 90.2051 13.8817 90.0944 13.8817Z" fill="#2C2E33"/>
<path d="M100.601 13.8937V13.5146C100.601 12.3994 101.028 11.9021 101.986 11.9021C102.557 11.9021 103.016 12.0156 103.53 12.1873C103.593 12.2072 103.659 12.1973 103.711 12.1593C103.764 12.1214 103.793 12.0606 103.793 11.9962V9.68431C103.793 9.59595 103.737 9.51776 103.652 9.4919C103.109 9.33022 102.414 9.16409 101.374 9.16409C98.8427 9.16409 97.505 10.591 97.505 13.2892V13.8698H96.1884C96.0779 13.8698 95.9873 13.9598 95.9873 14.0707V16.4405C95.9873 16.5513 96.0779 16.6415 96.1884 16.6415H97.505V26.052C97.505 26.1628 97.5943 26.2529 97.7048 26.2529H100.445C100.556 26.2529 100.646 26.1628 100.646 26.052V16.6415H103.204L107.124 26.0495C106.679 27.038 106.241 27.2347 105.644 27.2347C105.161 27.2347 104.653 27.0903 104.133 26.8056C104.084 26.7786 104.026 26.7742 103.973 26.7905C103.921 26.8091 103.877 26.848 103.855 26.899L102.926 28.939C102.882 29.0353 102.92 29.1486 103.012 29.1986C103.982 29.7243 104.857 29.9487 105.939 29.9487C107.963 29.9487 109.081 29.0049 110.067 26.4663L114.821 14.1675C114.845 14.1056 114.838 14.0359 114.8 13.9808C114.763 13.9266 114.702 13.8937 114.635 13.8937H111.782C111.697 13.8937 111.621 13.948 111.593 14.0283L108.67 22.3853L105.469 14.0228C105.44 13.945 105.365 13.8937 105.282 13.8937H100.601Z" fill="#2C2E33"/>
<path d="M94.5099 13.8817H91.7695C91.6588 13.8817 91.5688 13.972 91.5688 14.0828V26.052C91.5688 26.1629 91.6588 26.2529 91.7695 26.2529H94.5099C94.6204 26.2529 94.7106 26.1629 94.7106 26.052V14.0828C94.7106 13.972 94.6204 13.8817 94.5099 13.8817Z" fill="#2C2E33"/>
<path d="M93.1536 8.43181C92.0682 8.43181 91.187 9.31184 91.187 10.3985C91.187 11.4859 92.0682 12.3668 93.1536 12.3668C94.2388 12.3668 95.1189 11.4859 95.1189 10.3985C95.1189 9.31184 94.2388 8.43181 93.1536 8.43181Z" fill="#2C2E33"/>
<path d="M117.273 15.0723H116.771V15.7133H117.273C117.524 15.7133 117.673 15.5905 117.673 15.3926C117.673 15.1841 117.524 15.0723 117.273 15.0723ZM117.599 15.9867L118.144 16.7513H117.684L117.193 16.05H116.771V16.7513H116.386V14.7246H117.289C117.759 14.7246 118.068 14.9656 118.068 15.3711C118.068 15.7032 117.877 15.9063 117.599 15.9867ZM117.171 14.0503C116.183 14.0503 115.436 14.8363 115.436 15.7991C115.436 16.7613 116.178 17.5369 117.161 17.5369C118.149 17.5369 118.897 16.7513 118.897 15.7881C118.897 14.8259 118.154 14.0503 117.171 14.0503ZM117.161 17.73C116.076 17.73 115.232 16.8579 115.232 15.7991C115.232 14.7401 116.087 13.8581 117.171 13.8581C118.255 13.8581 119.1 14.7301 119.1 15.7881C119.1 16.8471 118.245 17.73 117.161 17.73Z" fill="#2C2E33"/>
</svg>
