<svg width="120" height="27" viewBox="0 0 120 27" fill="none" xmlns="http://www.w3.org/2000/svg">
<g clip-path="url(#clip0_2005_784)">
<path fill-rule="evenodd" clip-rule="evenodd" d="M64.1479 18.4154C62.8436 19.7445 61.2844 20.4131 59.4761 20.4131C58.0138 20.4131 56.7716 20.1136 55.5037 19.3729V16.324C56.5233 17.0192 57.8044 17.6813 59.069 17.6813C61.7057 17.6813 63.2756 15.8581 63.2756 13.2727C63.2756 10.6857 61.6519 8.8079 59.0135 8.8079C57.8359 8.8079 56.8808 9.23328 56.1344 10.0865C55.3349 11.0109 54.9211 12.3326 54.9211 14.0788V26.1177H54.7225C54.3761 26.1168 54.0333 26.0477 53.7137 25.9144C53.394 25.781 53.1037 25.586 52.8594 25.3405C52.6151 25.095 52.4216 24.8037 52.2898 24.4834C52.1581 24.1631 52.0907 23.8199 52.0916 23.4736V13.6278C52.0916 9.44928 54.6331 6.07604 59.0019 6.07604C61.1578 6.07604 62.9098 6.81673 64.2381 8.30639C65.4869 9.69756 66.1051 11.4603 66.1051 13.5822C66.1051 15.4691 65.4521 17.0838 64.1479 18.4154ZM94.7868 18.3127C93.4875 19.7138 91.8157 20.4131 89.7898 20.4131C87.6505 20.4131 85.9068 19.6716 84.5801 18.1828C83.3321 16.7743 82.7131 15.0098 82.7131 12.9078C82.7131 9.18611 85.5708 6.07604 89.3321 6.07604C90.7829 6.07604 92.0425 6.38391 93.3145 7.0857V10.1643C92.2949 9.46915 91.0138 8.80708 89.7493 8.80708C87.1126 8.80708 85.5418 10.6311 85.5418 13.2173C85.5418 15.7679 87.2036 17.6821 89.8039 17.6821C90.9807 17.6821 91.9506 17.2385 92.7253 16.3456C93.4966 15.4576 93.8971 14.1533 93.8971 12.4021V2.81949C93.8962 2.47313 93.9636 2.12998 94.0953 1.80965C94.2271 1.48932 94.4206 1.19808 94.6649 0.952544C94.9092 0.707013 95.1995 0.512005 95.5192 0.378654C95.8388 0.245304 96.1816 0.176222 96.528 0.175354L96.7266 0.175354V12.8515C96.7266 15.0835 96.0844 16.9108 94.7868 18.3127ZM102.777 4.72294C102.48 5.05728 102.055 5.21122 101.536 5.21122C100.564 5.21122 99.869 4.49122 99.869 3.52211C99.869 2.53066 100.551 1.86115 101.535 1.86115C102.482 1.86115 103.202 2.56708 103.202 3.52211C103.202 3.99384 103.064 4.40018 102.777 4.72294ZM117.156 12.4021C117.156 11.2807 116.734 10.3927 115.886 9.72073C115.122 9.11577 114.168 8.8079 113.007 8.8079C110.446 8.8079 108.801 10.8198 108.801 13.3017C108.801 15.6893 110.545 17.6821 112.98 17.6821C114.675 17.6821 115.58 16.6874 116.546 15.4476V19.0203C116.054 19.3911 115.488 19.7958 114.91 20.0325C114.3 20.289 113.572 20.4131 112.73 20.4131C108.658 20.4131 105.972 17.0225 105.972 13.1047C105.972 11.0929 106.593 9.42942 107.845 8.13259C109.174 6.75797 110.916 6.07604 113.049 6.07604C117.093 6.07604 119.986 8.40984 119.986 12.6264V20.1326H119.787C119.441 20.1317 119.098 20.0626 118.778 19.9292C118.458 19.7958 118.168 19.6008 117.924 19.3552C117.679 19.1096 117.486 18.8182 117.354 18.4978C117.222 18.1774 117.155 17.8341 117.156 17.4876V12.4021ZM78.4179 11.596C78.0604 10.4846 77.6119 9.93756 76.5807 9.35908C74.1286 7.98197 71.7145 9.15466 70.5923 11.5853L78.4179 11.596ZM76.2588 20.3709C74.4513 20.7574 72.6778 20.4595 70.9473 19.4879C69.259 18.5403 68.1294 17.1318 67.5625 15.2697C66.4171 11.5042 68.7633 7.30832 72.5379 6.29287C74.4083 5.78887 76.2025 6.01728 77.9065 6.97397C80.7368 8.56459 81.768 11.0242 81.5884 14.1938L70.1876 14.1698C70.3556 15.4625 71.1526 16.4738 72.2731 17.1028C73.4102 17.7409 74.4546 17.894 75.4237 17.5911C76.4996 17.2518 77.3735 16.3687 78.0836 15.5469L80.4066 17.2485C79.459 18.9533 78.1688 19.9629 76.2588 20.3709ZM100.121 6.35742H102.95V20.1326H102.751C102.405 20.1317 102.062 20.0626 101.742 19.9292C101.423 19.7958 101.132 19.6007 100.888 19.3551C100.644 19.1095 100.45 18.8181 100.319 18.4977C100.187 18.1773 100.12 17.8341 100.121 17.4876V6.35742ZM4.14125 20.1318C1.37297 20.1318 8.32857e-06 18.2399 8.32857e-06 15.5982V5.5737C-0.000862204 5.22723 0.0665189 4.88397 0.198305 4.56354C0.33009 4.24311 0.523699 3.95177 0.768078 3.70617C1.01246 3.46056 1.30282 3.26549 1.62258 3.1321C1.94235 2.9987 2.28526 2.9296 2.63173 2.92873H2.83035V6.35742H7.61132V9.08846H2.83035V15.9144C2.83035 17.0747 3.34511 17.4007 4.44911 17.4007H7.61049V20.1318H4.14125ZM20.5755 18.3914C19.1768 19.7378 17.4968 20.4131 15.5454 20.4131C13.6113 20.4131 11.9404 19.737 10.5426 18.3914C9.13987 17.0391 8.44056 15.3185 8.44056 13.2446C8.44056 9.19935 11.5142 6.07604 15.5454 6.07604C17.4795 6.07604 19.1553 6.75715 20.5614 8.11356C21.9732 9.47328 22.6784 11.1889 22.6784 13.2446C22.6784 15.3185 21.9782 17.0391 20.5763 18.3914H20.5755ZM33.8069 9.6719C33.3915 10.3712 33.0695 10.8736 32.8428 11.1765C32.5937 11.5058 32.347 11.769 32.1029 11.9511C34.0693 12.59 34.8017 13.9588 34.8017 15.9988V20.1318H34.603C33.9035 20.13 33.2332 19.8505 32.7397 19.3546C32.2462 18.8588 31.9698 18.1872 31.9713 17.4876V16.2794C31.9713 14.9585 31.3821 14.0622 29.9901 14.0622H27.4179V20.1318H27.2193C26.52 20.1298 25.85 19.8501 25.3568 19.3543C24.8636 18.8584 24.5875 18.187 24.5893 17.4876V2.81949C24.5883 2.47317 24.6555 2.13004 24.7872 1.80972C24.9188 1.48939 25.1123 1.19814 25.3565 0.952594C25.6008 0.707052 25.891 0.512031 26.2106 0.37867C26.5302 0.24531 26.873 0.176222 27.2193 0.175354L27.4179 0.175354V11.3031H28.2546C29.1733 11.3031 29.7774 10.9869 30.125 10.3894L32.501 6.35825L35.7261 6.35494L33.8053 9.6719H33.8069ZM48.4138 18.3914C47.0152 19.7378 45.3352 20.4131 43.3837 20.4131C41.4497 20.4131 39.7796 19.737 38.381 18.3914C36.9782 17.0391 36.2789 15.3185 36.2789 13.2446C36.2789 9.19935 39.3526 6.07604 43.3837 6.07604C45.3186 6.07604 46.9937 6.75715 48.4006 8.11356C49.8116 9.47328 50.5167 11.1889 50.5167 13.2446C50.5167 15.3185 49.8157 17.0391 48.4138 18.3914ZM46.3713 10.0394C45.5917 9.21921 44.6011 8.8079 43.3837 8.8079C40.7793 8.8079 39.221 10.7155 39.221 13.2446C39.221 15.7389 40.8166 17.6821 43.3837 17.6821C45.9517 17.6821 47.5465 15.7389 47.5465 13.2446C47.5465 11.9205 47.1509 10.8578 46.3713 10.0394ZM18.5338 10.0394C17.7542 9.21921 16.7628 8.8079 15.5462 8.8079C12.9418 8.8079 11.3835 10.7155 11.3835 13.2446C11.3835 15.7389 12.979 17.6821 15.5462 17.6821C18.1134 17.6821 19.709 15.7389 19.709 13.2446C19.709 11.9205 19.3134 10.8578 18.5338 10.0394Z" fill="#2C2E33"/>
</g>
<defs>
<clipPath id="clip0_2005_784">
<rect width="120" height="26.4828" fill="white" transform="translate(0 0.175354)"/>
</clipPath>
</defs>
</svg>
