<svg width="120" height="28" viewBox="0 0 120 28" fill="none" xmlns="http://www.w3.org/2000/svg">
<g clip-path="url(#clip0_2005_773)">
<path fill-rule="evenodd" clip-rule="evenodd" d="M109.331 7.08687C114.049 4.07394 119.978 3.4881 119.978 3.4881C119.978 3.4881 113.715 10.6856 112.17 13.9915C111.711 15.4561 112.671 16.6278 112.671 16.6278C112.671 16.6278 109.916 13.5312 109.331 7.08687Z" fill="#2C2E33"/>
<path fill-rule="evenodd" clip-rule="evenodd" d="M111.377 5.95703C110.667 6.2918 109.999 6.66842 109.331 7.08688C109.623 10.3509 110.5 12.7361 111.252 14.3263C111.669 15.0795 112.045 15.6653 112.337 16.1256C112.17 15.8327 112.045 15.4143 112.003 14.954C111.628 13.4056 111.252 10.6856 111.377 5.95703Z" fill="#2C2E33"/>
<path fill-rule="evenodd" clip-rule="evenodd" d="M105.114 9.89058C105.114 9.89058 104.822 8.80258 104.697 8.46781C104.404 7.63089 104.112 6.75212 104.112 5.2875C104.112 3.27889 107.536 1.10289 109.665 0.43335C109.081 7.79827 109.916 10.058 110.667 12.485C112.463 18.5109 116.596 19.3897 116.972 19.8081C115.928 19.5989 116.513 20.0592 116.513 20.0592C116.513 20.0592 114.843 18.8875 111.461 17.925C108.079 16.9626 105.448 16.837 103.862 15.9164C102.609 14.9958 102.567 14.2426 101.983 13.6986C100.062 12.0247 95.1768 11.3133 95.1768 11.3133L99.3521 11.9829C99.3521 11.9829 99.9367 11.9829 100.605 11.7318C100.772 11.7318 101.231 11.1878 102.233 11.5226C102.651 11.6481 102.525 11.8155 103.736 12.1503C105.281 12.6106 105.114 9.89058 105.114 9.89058Z" fill="#2C2E33"/>
<path fill-rule="evenodd" clip-rule="evenodd" d="M1.67015 22.6118C1.67015 26.9219 4.92693 27.4241 6.59708 27.4241C7.09812 27.4241 7.4739 27.3822 7.4739 27.3822V25.2063C7.4739 25.2063 7.26514 25.2481 6.88935 25.2481C5.92902 25.2481 4.13361 24.9133 4.13361 22.3607V16.5859H7.22338V14.5773H4.13361V10.8949H1.75365V14.6192H0V16.6278H1.67015V22.6118ZM9.7286 27.3404H12.1921V22.0678C12.1921 21.2727 12.2756 20.4776 12.4843 19.7663C13.0689 17.8413 14.5303 16.7533 16.0752 16.7533C16.4509 16.7533 16.785 16.837 16.785 16.837V14.4099C16.785 14.4099 16.4927 14.3681 16.1587 14.3681C14.1962 14.3681 12.6931 15.8327 12.1086 17.7158H12.0668C12.0668 17.7158 12.1086 17.2973 12.1086 16.7533V14.4936H9.7286V27.3404ZM17.6618 23.6998C17.6618 26.2942 19.833 27.6333 22.0459 27.6333C25.1357 27.6333 26.1795 25.0807 26.1795 25.0807H26.2213C26.2213 25.0807 26.1795 25.4992 26.1795 26.085V27.2986H28.476V19.1804C28.476 15.9164 26.6388 14.117 23.382 14.117C20.4175 14.117 18.5804 15.6653 18.5804 15.6653L19.5825 17.4647C19.5825 17.4647 21.1691 16.2093 23.1733 16.2093C24.8017 16.2093 26.0125 16.9207 26.0125 19.0549V19.2641H25.4697C23.2568 19.2641 17.6618 19.4315 17.6618 23.6998ZM20.1253 23.5742C20.1253 21.2727 23.4656 21.1472 25.3445 21.1472H25.9708V21.5656C25.9708 23.4906 24.6347 25.6666 22.547 25.6666C20.9603 25.6247 20.1253 24.6204 20.1253 23.5742ZM34.6555 27.3404H37.4948L42.2547 14.4518H39.666L36.5345 23.1558C36.2839 23.8672 36.1169 24.9133 36.0752 24.9133H36.0334C35.9917 24.9133 35.8664 23.8672 35.6159 23.1558L32.4843 14.4518H29.8539L34.6555 27.3404ZM42.881 20.8961C42.881 24.7041 45.6367 27.6333 49.6869 27.6333C52.7766 27.6333 54.6555 25.7921 54.6555 25.7921L53.6534 23.9927C53.6534 23.9927 52.0668 25.4992 49.8539 25.4992C47.5574 25.4992 45.5532 24.0764 45.428 21.2309H54.7808C54.7808 21.2309 54.8643 20.4776 54.8643 20.1429C54.8643 16.7952 52.9436 14.117 49.3111 14.117C45.6785 14.117 42.881 16.7952 42.881 20.8961ZM45.5115 19.3896C45.8873 17.2555 47.3904 16.0838 49.2693 16.0838C50.9395 16.0838 52.2756 17.1718 52.3591 19.3896H45.5115ZM57.1608 23.8253C57.1608 27.0475 59.2067 27.4241 60.6263 27.4241C61.0438 27.4241 61.4196 27.3822 61.4196 27.3822V25.2063C61.4196 25.2063 61.2109 25.2481 61.0021 25.2481C60.2505 25.2481 59.6242 24.9552 59.6242 23.4069V9.34656H57.1608V23.8253ZM62.547 20.8542C62.547 24.7878 65.6367 27.6333 69.4781 27.6333C73.3194 27.6333 76.4092 24.7878 76.4092 20.8542C76.4092 16.9626 73.3194 14.117 69.4781 14.117C65.6367 14.117 62.547 16.9626 62.547 20.8542ZM65.0522 20.8542C65.0522 18.1761 67.0564 16.2512 69.4781 16.2512C71.8998 16.2512 73.904 18.1761 73.904 20.8542C73.904 23.5742 71.9415 25.4992 69.4781 25.4992C67.0564 25.4992 65.0522 23.5742 65.0522 20.8542ZM78.8309 27.3404H81.2944V21.2727H83.1315L86.9729 27.3404H89.8539L85.0939 20.1847V20.101L89.3528 14.4099H86.5553L83.0898 19.1804H81.2944V9.34656H78.8309V27.3404ZM90.5637 23.6998C90.5637 26.2942 92.7349 27.6333 94.9478 27.6333C98.0376 27.6333 99.0814 25.0807 99.0814 25.0807H99.1232C99.1232 25.0807 99.0814 25.4992 99.0814 26.085V27.2986H101.378V19.1804C101.378 15.9164 99.5407 14.117 96.2839 14.117C93.3194 14.117 91.4823 15.6653 91.4823 15.6653L92.4843 17.4647C92.4843 17.4647 94.071 16.2093 96.0752 16.2093C97.7036 16.2093 98.9144 16.9207 98.9144 19.0549V19.2641H98.3716C96.1587 19.2641 90.5637 19.4315 90.5637 23.6998ZM93.0689 23.5742C93.0689 21.2727 96.4092 21.1472 98.2881 21.1472H98.9144V21.5656C98.9144 23.4906 97.5783 25.6666 95.4906 25.6666C93.8622 25.6247 93.0689 24.6204 93.0689 23.5742Z" fill="#2C2E33"/>
</g>
<defs>
<clipPath id="clip0_2005_773">
<rect width="120" height="27.2" fill="white" transform="translate(0 0.43335)"/>
</clipPath>
</defs>
</svg>
