<svg width="110" height="32" viewBox="0 0 110 32" fill="none" xmlns="http://www.w3.org/2000/svg">
<g clip-path="url(#clip0_2005_807)">
<path d="M32.767 8.06561H37.5306C37.6701 8.06561 37.7697 8.18548 37.7697 8.30536V23.8088C37.7697 23.9486 37.6501 24.0485 37.5306 24.0485H32.767C32.6275 24.0485 32.5278 23.9286 32.5278 23.8088V8.32533C32.5278 8.18548 32.6275 8.06561 32.767 8.06561Z" fill="#2C2E33"/>
<path d="M51.3427 8.22544L48.1936 16.6165C48.1736 16.6564 48.1138 16.6564 48.0939 16.6165L44.9248 8.22544C44.885 8.12555 44.8053 8.06561 44.6857 8.06561H39.4637C39.2843 8.06561 39.1647 8.24542 39.2245 8.40525L45.5028 23.8887C45.5427 23.9886 45.6224 24.0485 45.742 24.0485H50.3262C50.4258 24.0485 50.5255 23.9886 50.5654 23.8887L56.8636 8.42523C56.9234 8.2654 56.8038 8.08559 56.6244 8.08559H51.542C51.4623 8.06561 51.3626 8.14553 51.3427 8.22544Z" fill="#2C2E33"/>
<path d="M101.39 7.82587C96.4068 7.82587 92.7793 11.3421 92.7793 16.077C92.7793 20.812 96.4068 24.3282 101.39 24.3282C106.313 24.3282 110 20.772 110 16.077C110 11.3621 106.332 7.82587 101.39 7.82587ZM101.39 19.833C99.4363 19.833 98.1408 18.3346 98.1408 16.077C98.1408 13.8195 99.4363 12.3211 101.39 12.3211C103.323 12.3211 104.638 13.8195 104.638 16.077C104.638 18.3146 103.323 19.833 101.39 19.833Z" fill="#2C2E33"/>
<path d="M30.7736 8.0057C30.6341 7.96574 30.4547 7.92578 30.2753 7.88583C29.9763 7.84587 26.7275 7.46628 24.9337 9.90367C24.8939 9.94363 24.8341 9.92365 24.8341 9.86371V8.58508V8.32536C24.8341 8.18551 24.7145 8.08561 24.5949 8.08561H19.8114C19.6719 8.08561 19.5723 8.20549 19.5723 8.32536V23.8088C19.5723 23.9486 19.6919 24.0485 19.8114 24.0485H24.575C24.7145 24.0485 24.8142 23.9287 24.8142 23.8088V18.0549C24.8142 13.7595 26.8073 12.6807 28.7605 12.6807C28.9997 12.6807 29.6574 12.6807 30.6141 12.9404C30.7736 12.9804 30.933 12.8605 30.933 12.7007V8.22546C30.933 8.12557 30.8732 8.02568 30.7736 8.0057Z" fill="#2C2E33"/>
<path d="M35.1585 0.833374C33.4843 0.833374 32.1489 2.13198 32.1489 3.75025C32.1489 5.36852 33.5042 6.66713 35.1585 6.66713C36.8327 6.66713 38.1681 5.36852 38.1681 3.75025C38.1681 2.13198 36.8128 0.833374 35.1585 0.833374Z" fill="#2C2E33"/>
<path d="M73.2071 8.06561H68.4436C68.3041 8.06561 68.2044 8.18548 68.2044 8.30535V9.82373C68.2044 9.88366 68.1247 9.90364 68.1048 9.84371C66.3907 6.22757 56.166 6.92683 56.166 16.0371C56.166 24.548 64.8959 26.0664 68.1048 22.5102C68.1446 22.4702 68.2044 22.4902 68.2044 22.5501V23.7888C68.2044 23.9286 68.324 24.0285 68.4436 24.0285H73.2071C73.3467 24.0285 73.4463 23.9087 73.4463 23.7888V8.32533C73.4463 8.18548 73.3467 8.06561 73.2071 8.06561ZM64.8759 19.813C62.7832 19.813 61.3083 18.3346 61.3083 16.077C61.3083 13.8195 62.7832 12.3011 64.8759 12.3011C67.0086 12.3011 68.4436 13.8394 68.4436 16.077C68.4436 18.3146 67.0086 19.813 64.8759 19.813Z" fill="#2C2E33"/>
<path d="M91.2249 8.06561H86.4613C86.3218 8.06561 86.2222 8.18548 86.2222 8.30535V9.82373C86.2222 9.88367 86.1424 9.90364 86.1225 9.84371C84.3885 6.18762 74.8813 7.10664 74.8813 15.5776C74.8813 23.8887 83.5514 24.5879 86.1424 22.1505C86.1823 22.1106 86.2421 22.1505 86.2421 22.1905V22.9297C86.1823 26.4659 81.7576 27.9843 79.5054 25.3072C79.4256 25.2073 79.2861 25.1873 79.1865 25.2672L75.1405 27.9244C75.0209 28.0043 75.0009 28.1641 75.0807 28.284C80.2229 35.3165 91.4043 31.7403 91.484 23.0096V8.32533C91.484 8.18548 91.3644 8.06561 91.2249 8.06561ZM83.3521 18.9739C81.4586 18.9739 80.1232 17.6554 80.1232 15.5976C80.1232 13.5398 81.4387 12.2012 83.3521 12.2012C85.2854 12.2012 86.5809 13.5797 86.5809 15.5976C86.5809 17.6154 85.2854 18.9739 83.3521 18.9739Z" fill="#2C2E33"/>
<path d="M17.8982 15.3179H13.1147C12.9951 15.3179 12.8755 15.4178 12.8755 15.5576C12.7161 17.5155 11.0817 19.0738 9.0886 19.0738C6.67693 19.0539 5.70031 17.016 5.70031 17.016C5.28175 16.2369 5.26182 15.4777 5.26182 15.3179C5.26182 15.2979 5.28175 15.2779 5.28175 15.2779L6.657 14.5187L15.3071 9.72384C15.4466 9.64393 15.5264 9.50408 15.5264 9.36423V4.20974C15.5264 4.02993 15.3271 3.91006 15.1676 3.98998L5.34155 9.42416C5.30168 9.44414 5.26182 9.42416 5.26182 9.38421V1.27288C5.26182 1.07309 5.04258 0.953223 4.88313 1.07309L0.17938 4.10985C0.0597934 4.18976 0 4.30963 0 4.44948V15.2979C0.0398623 20.2925 4.08588 24.3282 9.06867 24.3282C13.9717 24.3282 17.958 20.4324 18.1373 15.5576C18.1573 15.4377 18.0377 15.3179 17.8982 15.3179Z" fill="#2C2E33"/>
</g>
<defs>
<clipPath id="clip0_2005_807">
<rect width="110" height="31.1667" fill="white" transform="translate(0 0.833374)"/>
</clipPath>
</defs>
</svg>
