<svg width="120" height="30" viewBox="0 0 120 30" fill="none" xmlns="http://www.w3.org/2000/svg">
<g clip-path="url(#clip0_2005_755)">
<path fill-rule="evenodd" clip-rule="evenodd" d="M66.6751 18.9979C66.6751 19.2266 66.6372 19.4934 66.5992 19.684C66.2579 20.6751 65.3477 21.3232 64.2857 21.3232C63.3375 21.3232 62.6169 20.7895 62.6169 19.6459C62.6169 17.8924 64.5133 17.4349 66.713 17.4349V18.9979H66.6751ZM70.0885 15.9483C70.0885 13.0892 68.8748 10.5352 64.7408 10.5352C62.6169 10.5352 60.9102 11.1451 60 11.6788L60.6827 14.0041C61.7446 13.3942 62.9204 13.0511 64.134 13.013C66.2579 13.013 66.5992 14.1947 66.5992 14.9571V15.1477C62.0101 15.1477 59.1277 16.7488 59.1277 19.989C59.1277 21.9712 60.6068 23.8391 63.1858 23.8391C64.7408 23.8391 66.0683 23.2292 66.8647 22.1999H66.9406C66.9406 22.1999 67.4715 24.4109 70.354 23.5723C70.2023 22.6574 70.1264 21.6663 70.1264 20.5227V15.9483H70.0885ZM0 6.60883L3.48925 20.942C4.05815 23.2673 5.04425 24.1441 7.92667 23.5723L9.78508 15.9483C10.2402 14.0422 10.5815 12.708 10.885 10.7639H10.9229C11.1504 12.708 11.4539 14.0422 11.8331 15.9483L12.9709 21.2469C13.3881 23.0767 14.4501 24.2203 17.2946 23.5723L21.732 6.64695H18.129L16.6119 13.966C16.1947 16.1007 15.8154 17.778 15.5499 19.7221C15.2844 17.778 14.9431 16.177 14.5259 14.1185L12.9709 6.64695H9.21618L7.50948 13.9279C7.05436 16.1389 6.59924 17.9305 6.29583 19.7984H6.2579C5.95449 18.0449 5.57522 15.7958 5.15803 13.661L3.79267 6.60883H0ZM28.3312 18.9979C28.3312 19.2266 28.3312 19.4934 28.2554 19.684C27.914 20.6751 27.0038 21.3232 25.9418 21.3232C24.9937 21.3232 24.2731 20.7895 24.2731 19.6459C24.2731 17.8924 26.1694 17.4349 28.3692 17.4349V18.9979H28.3312ZM31.7826 15.9483C31.7826 13.0892 30.5689 10.5352 26.4349 10.5352C24.311 10.5352 22.6043 11.1451 21.6941 11.6788L22.3767 14.0041C23.4387 13.3942 24.6144 13.0511 25.8281 13.013C27.952 13.013 28.2933 14.1947 28.2933 14.9571V15.1477C23.7042 15.1477 20.8217 16.7488 20.8217 19.989C20.8217 21.9712 22.3009 23.8391 24.8799 23.8391C26.4349 23.8391 27.7623 23.2292 28.5588 22.1999H28.6346C28.6346 22.1999 29.1656 24.4109 32.048 23.5723C31.8963 22.6574 31.8205 21.6663 31.8205 20.5227V15.9483H31.7826ZM37.0544 19.9509V6.60883H33.641V23.5342H37.0544V19.9509ZM80.5942 6.64695V19.1122C80.5942 20.8276 80.8976 22.0475 81.6182 22.7717C82.225 23.4198 83.2111 23.8391 84.3868 23.8391C85.4109 23.8391 86.397 23.6485 86.8521 23.4579L86.8142 20.7514C86.4728 20.8657 86.0556 20.9039 85.5247 20.9039C84.3489 20.9039 83.9697 20.1796 83.9697 18.6167V13.8898H86.9659V10.6496H83.9697V6.60883L80.5942 6.64695ZM71.7573 10.8402V23.5723H75.2844V17.0537C75.2844 16.7107 75.3224 16.4057 75.3603 16.1007C75.6258 14.7284 76.6498 13.8516 78.1669 13.8516C78.5841 13.8516 78.8496 13.8898 79.1909 13.9279V10.5733C78.9254 10.5352 78.6599 10.4971 78.4324 10.4971C77.1049 10.4971 75.6258 11.3357 74.981 13.2036H74.9052V10.802L71.7573 10.8402ZM39.0645 10.8402V23.5723H42.4779V16.1007C42.4779 15.7577 42.5158 15.3765 42.6296 15.0715C42.8951 14.3091 43.6157 13.4323 44.7155 13.4323C46.1188 13.4323 46.7636 14.614 46.7636 16.2913V23.5342H50.2149V15.9864C50.2149 15.6433 50.2528 15.224 50.3666 14.9571C50.6321 14.0422 51.5044 13.3942 52.4526 13.3942C53.8559 13.3942 54.5386 14.5378 54.5386 16.5582V23.5342H57.9899V16.0626C57.9899 12.1362 55.9798 10.5352 53.7421 10.5352C52.7181 10.5352 51.9595 10.802 51.2389 11.2214C50.6321 11.6026 50.1011 12.1362 49.646 12.8224H49.6081C49.0392 11.412 47.6359 10.4971 46.1188 10.5352C44.6018 10.459 43.1606 11.2214 42.4399 12.5556H42.402V10.8402H39.0645Z" fill="#2C2E33"/>
<path fill-rule="evenodd" clip-rule="evenodd" d="M105.436 10.2683C106.119 10.2683 106.688 9.88714 106.764 9.46781L107.408 1.80567C107.408 1.04327 106.536 0.43335 105.436 0.43335C104.336 0.43335 103.464 1.04327 103.464 1.80567L104.147 9.46781C104.185 9.92526 104.753 10.2683 105.436 10.2683ZM101.302 12.6699C101.643 12.06 101.605 11.4119 101.264 11.107L95.0062 6.72317C94.3615 6.34197 93.3754 6.79941 92.8444 7.75241C92.2755 8.70541 92.3893 9.81089 93.0341 10.154L99.9746 13.3942C100.392 13.5467 100.999 13.2417 101.302 12.6699ZM109.532 12.6318C109.874 13.2417 110.442 13.5467 110.898 13.3561L117.8 10.1159C118.445 9.73465 118.559 8.66729 117.99 7.71429C117.421 6.76129 116.473 6.30385 115.828 6.68505L109.57 11.107C109.229 11.4119 109.191 12.06 109.532 12.6318ZM105.436 19.7984C106.119 19.7984 106.688 20.1796 106.764 20.5989L107.408 28.261C107.408 29.0234 106.536 29.6333 105.436 29.6333C104.336 29.6333 103.464 29.0234 103.464 28.261L104.147 20.5989C104.185 20.1414 104.753 19.7984 105.436 19.7984ZM109.532 17.4349C109.874 16.825 110.442 16.52 110.898 16.6725L117.8 19.9127C118.445 20.2939 118.559 21.3613 117.99 22.3143C117.421 23.2673 116.473 23.7247 115.828 23.3435L109.57 18.9597C109.229 18.6929 109.191 18.0067 109.532 17.4349ZM101.302 17.4349C101.643 18.0067 101.605 18.6929 101.264 18.9978L95.0062 23.3817C94.3615 23.7629 93.3754 23.3054 92.8444 22.3524C92.2755 21.3994 92.3893 20.332 93.0341 19.9508L99.9746 16.7106C100.392 16.52 100.999 16.825 101.302 17.4349ZM119.279 22.6955H119.355C119.431 22.6955 119.507 22.6574 119.507 22.6192C119.507 22.543 119.469 22.543 119.393 22.543H119.317V22.6955H119.279ZM119.279 23.0386H119.128V22.4286H119.355C119.469 22.4286 119.507 22.4286 119.583 22.4668C119.621 22.5049 119.659 22.543 119.659 22.5811C119.659 22.6574 119.621 22.6955 119.545 22.7336C119.621 22.7717 119.659 22.8099 119.659 22.8861C119.659 23.0005 119.697 23.0005 119.697 23.0386H119.545C119.507 23.0005 119.507 22.9623 119.507 22.8861C119.507 22.8099 119.469 22.8099 119.393 22.8099H119.317L119.279 23.0386ZM119.355 22.238C119.09 22.238 118.9 22.4668 118.9 22.7336C118.9 23.0005 119.09 23.2292 119.355 23.2292C119.621 23.2292 119.81 23.0005 119.81 22.7336C119.848 22.4668 119.621 22.238 119.355 22.238ZM119.355 22.1237C119.697 22.1237 119.962 22.3905 119.962 22.7336C119.962 23.0767 119.697 23.3435 119.355 23.3435C119.014 23.3435 118.71 23.0767 118.71 22.7336C118.748 22.3905 119.014 22.1237 119.355 22.1237Z" fill="#2C2E33"/>
</g>
<defs>
<clipPath id="clip0_2005_755">
<rect width="120" height="29.2" fill="white" transform="translate(0 0.43335)"/>
</clipPath>
</defs>
</svg>
