<svg id="visual" viewBox="0 0 900 600" width="900" height="600" xmlns="http://www.w3.org/2000/svg"><path d="M0 536L21.5 530.2C43 524.3 86 512.7 128.8 512C171.7 511.3 214.3 521.7 257.2 532.8C300 544 343 556 385.8 553.8C428.7 551.7 471.3 535.3 514.2 525.8C557 516.3 600 513.7 642.8 519.5C685.7 525.3 728.3 539.7 771.2 538.3C814 537 857 520 878.5 511.5L900 503L900 601L878.5 601C857 601 814 601 771.2 601C728.3 601 685.7 601 642.8 601C600 601 557 601 514.2 601C471.3 601 428.7 601 385.8 601C343 601 300 601 257.2 601C214.3 601 171.7 601 128.8 601C86 601 43 601 21.5 601L0 601Z" fill="#FBEBD7" stroke-linecap="round" stroke-linejoin="miter" ></path></svg>