<svg width="701" height="700" viewBox="0 0 701 700" fill="none" xmlns="http://www.w3.org/2000/svg">
<circle cx="350.862" cy="350" r="350" fill="#408AA3"/>
<path d="M343.32 21.8652C285.72 11.4652 226.32 31.8652 203.82 43.3652C153.32 69.1764 238.82 54.3652 238.82 63.3652C238.82 72.3652 217.82 94.8652 238.82 105.865C259.82 116.865 382.32 31.3652 343.32 21.8652Z" fill="#A9C348" stroke="#A9C348" stroke-linecap="round"/>
<path d="M429.975 401.627C466.375 394.427 471.808 416.627 469.975 428.627C424.975 534.627 495.975 557.126 509.975 587.126C523.975 617.126 627.475 513.126 603.475 470.626C579.475 428.126 649.975 412.626 666.975 330.126C683.975 247.626 602.475 169.126 577.975 136.626C558.375 110.626 518.475 106.126 500.975 107.126C489.308 108.793 471.975 117.826 495.975 140.626C525.975 169.126 453.975 174.126 420.475 196.126C386.975 218.126 423.975 233.126 453.975 214.126C483.975 195.126 491.475 234.126 529.975 224.126C568.475 214.126 582.975 243.626 564.475 265.627C545.975 287.627 513.475 289.127 480.975 265.627C448.475 242.127 362.975 270.627 352.475 327.627C341.975 384.627 384.475 410.627 429.975 401.627Z" fill="#A9C348" stroke="#A9C348" stroke-linecap="round"/>
<path d="M93.3668 453.015C85.8623 397.5 18.8624 358.5 70.8668 323.515C134.366 274.515 362.867 283.015 244.367 414.515C125.867 546.015 249.867 628.015 187.367 610.515C137.367 596.515 103.867 499.682 93.3668 453.015Z" fill="#A9C348" stroke="#A9C348" stroke-linecap="round"/>
<path d="M462.181 600.519C430.581 637.719 382.014 631.352 361.681 623.519C316.848 605.519 180.181 562.019 256.681 529.519C302.426 510.085 350.181 538.019 366.181 562.019C382.181 586.019 396.181 558.519 424.181 569.519C453.274 580.948 478.181 580.019 462.181 600.519Z" fill="#A9C348" stroke="#A9C348" stroke-linecap="round"/>
<path d="M255.862 210.999C218.662 274.599 128.029 268.499 87.3624 257.499C20.8624 196.499 87.3624 168.499 136.862 140.999C186.362 113.499 302.362 131.499 255.862 210.999Z" fill="#A9C348" stroke="#A9C348" stroke-linecap="round"/>
<path d="M409.362 176.5C351.762 192.5 332.029 234.5 329.362 253.5C312.362 305 299.862 237.5 329.362 186C358.862 134.5 481.362 156.5 409.362 176.5Z" fill="#A9C348" stroke="#A9C348" stroke-linecap="round"/>
<path d="M350.862 0C396.825 0 442.338 9.05304 484.802 26.6422C527.265 44.2313 565.849 70.0121 598.35 102.513C630.85 135.013 656.631 173.597 674.22 216.061C691.809 258.525 700.862 304.037 700.862 350C700.862 395.963 691.809 441.475 674.22 483.939C656.631 526.403 630.85 564.987 598.35 597.487C565.849 629.988 527.265 655.769 484.801 673.358C442.338 690.947 396.825 700 350.862 700L350.862 350L350.862 0Z" fill="#36707B" fill-opacity="0.33"/>
</svg>
