<svg width="746" height="700" viewBox="0 0 746 700" fill="none" xmlns="http://www.w3.org/2000/svg">
<circle cx="395.862" cy="350" r="350" fill="#E0B15F"/>
<path d="M395.862 0C441.824 0 487.337 9.05304 529.801 26.6422C572.265 44.2313 610.849 70.0121 643.349 102.513C675.85 135.013 701.631 173.597 719.22 216.061C736.809 258.525 745.862 304.037 745.862 350C745.862 395.963 736.809 441.475 719.22 483.939C701.63 526.403 675.85 564.987 643.349 597.487C610.849 629.988 572.265 655.769 529.801 673.358C487.337 690.947 441.824 700 395.862 700L395.862 350L395.862 0Z" fill="#D8A13F"/>
<path d="M264.862 256.999C248.862 252.999 220.195 268.333 207.862 276.499L313.362 283C303.862 275.999 280.862 260.999 264.862 256.999Z" fill="#8D5A2F" stroke="#8D5A2F" stroke-linecap="round"/>
<path d="M448.6 548.442C459.246 561.038 491.468 565.349 506.249 565.929L424.438 499C428.056 510.232 437.954 535.846 448.6 548.442Z" fill="#8D5A2F" stroke="#8D5A2F" stroke-linecap="round"/>
<path d="M572.844 359.645C481.525 402.102 347.677 391.145 288.844 374.145C245.844 365.645 185.644 366.745 288.844 439.145C417.844 529.645 595.344 413.145 616.844 389.645C637.299 367.288 629.844 333.145 572.844 359.645Z" fill="#8D5A2F" stroke="#8D5A2F" stroke-linecap="round"/>
<path d="M389.362 147.5C322.162 150.3 269.696 122.667 251.862 108.5C202.195 84.8334 128.062 62.6001 228.862 163C354.862 288.5 599.362 302.5 619.862 278C640.362 253.5 615.862 223.5 541.362 233C466.862 242.5 473.362 144 389.362 147.5Z" fill="#8D5A2F" stroke="#8D5A2F" stroke-linecap="round"/>
<path d="M444.862 88.9997C443.262 35.7997 376.195 14.833 342.862 10.9997C479.662 -20.6003 597.528 60.833 639.362 105.5C654.347 121.5 632.462 149.1 610.862 121.5C589.262 93.8997 542.862 115.666 522.362 130C497.195 138.5 446.462 142.2 444.862 88.9997Z" fill="#8D5A2F" stroke="#8D5A2F" stroke-linecap="round"/>
<path d="M130.476 333.207C79.1568 319.094 74.6146 248.973 78.7584 215.677C15.7581 341.151 67.066 474.91 100.595 526.105C115.862 552.5 144.592 529.693 122.871 502.188C101.15 474.683 133.254 434.733 152.022 418.196C166.223 395.747 181.794 347.321 130.476 333.207Z" fill="#8D5A2F" stroke="#8D5A2F" stroke-linecap="round"/>
<path d="M394.181 588.519C362.581 625.719 314.014 619.352 293.681 611.519C248.848 593.519 112.181 550.019 188.681 517.519C234.426 498.085 282.181 526.019 298.181 550.019C314.181 574.019 328.181 546.519 356.181 557.519C385.274 568.948 410.181 568.019 394.181 588.519Z" fill="#8D5A2F" stroke="#8D5A2F" stroke-linecap="round"/>
<path d="M679.099 456.267C701.558 499.602 677.271 542.139 662.319 557.99C628.679 592.666 556.23 653.525 535.553 619.563C509.707 577.11 578.834 536.249 607.106 530.532C635.378 524.814 666.221 487.734 636.016 479.694C605.81 471.654 666.187 433.694 679.099 456.267Z" fill="#8D5A2F" stroke="#8D5A2F" stroke-linecap="round"/>
<circle cx="440.862" cy="293" r="4.5" fill="#8D5A2F" stroke="#8D5A2F"/>
<circle cx="332.862" cy="350" r="4.5" fill="#8D5A2F" stroke="#8D5A2F"/>
<circle cx="292.862" cy="499" r="4.5" fill="#8D5A2F" stroke="#8D5A2F"/>
<circle cx="530.862" cy="506" r="4.5" fill="#8D5A2F" stroke="#8D5A2F"/>
<circle cx="680.862" cy="334" r="4.5" fill="#8D5A2F" stroke="#8D5A2F"/>
<circle cx="347.862" cy="93" r="4.5" fill="#8D5A2F" stroke="#8D5A2F"/>
<circle cx="173.862" cy="219" r="4.5" fill="#8D5A2F" stroke="#8D5A2F"/>
<path d="M493.722 633.663C450.922 628.063 418.222 659.329 407.222 675.663C380.722 711.163 483.722 665.663 482.722 660.663C481.722 655.663 517.722 638.663 493.722 633.663Z" fill="#8D5A2F"/>
</svg>
