<svg width="629" height="617" viewBox="0 0 629 617" fill="none" xmlns="http://www.w3.org/2000/svg">
<circle cx="328.589" cy="316.146" r="300" fill="#808080"/>
<path d="M626.589 317.146C634.189 189.946 546.089 100.146 501.089 71.1455C561.489 413.945 278.589 526.312 129.589 539.646C231.089 634.146 387.589 623.646 457.589 585.646C527.589 547.646 617.089 476.146 626.589 317.146Z" fill="#060606" fill-opacity="0.05"/>
<path d="M293.085 18.6431C417.084 12.1443 448.086 43.6439 488.586 63.1441C102.086 68.1441 93.4292 353.054 94.5897 502.645C20.0898 411.646 16.5469 305.106 46.4718 216.639C77.5898 124.646 176.584 24.749 293.085 18.6431Z" fill="#AFAFAF" fill-opacity="0.19"/>
<ellipse cx="296.589" cy="71.646" rx="48" ry="20.5" fill="#5C5C5C"/>
<ellipse cx="321.589" cy="229.646" rx="40" ry="20.5" fill="#5C5C5C"/>
<ellipse cx="422.589" cy="355.646" rx="40" ry="20.5" fill="#5C5C5C"/>
<ellipse cx="418.54" cy="539.328" rx="40" ry="20.5" transform="rotate(-15.0484 418.54 539.328)" fill="#5C5C5C"/>
<ellipse cx="248.54" cy="335.328" rx="40" ry="20.5" transform="rotate(-11.7786 248.54 335.328)" fill="#5C5C5C"/>
<ellipse cx="208.589" cy="476.646" rx="40" ry="20.5" fill="#5C5C5C"/>
<ellipse cx="82.9478" cy="356.579" rx="40" ry="20.5" transform="rotate(-91.2375 82.9478 356.579)" fill="#5C5C5C"/>
<ellipse cx="567.949" cy="355.579" rx="40" ry="20.5" transform="rotate(-91.2375 567.949 355.579)" fill="#5C5C5C"/>
<ellipse cx="498.32" cy="152.278" rx="48" ry="20.5" transform="rotate(36.7216 498.32 152.278)" fill="#5C5C5C"/>
<ellipse cx="153.382" cy="150.645" rx="36.3308" ry="17.1558" transform="rotate(-40.0164 153.382 150.645)" fill="#5C5C5C"/>
<ellipse cx="503.862" cy="265" rx="15" ry="8" transform="rotate(25.8248 503.862 265)" fill="#5C5C5C"/>
<ellipse cx="345.849" cy="456.735" rx="15" ry="8" transform="rotate(114.249 345.849 456.735)" fill="#5C5C5C"/>
<ellipse cx="258.819" cy="568.41" rx="15" ry="8" transform="rotate(-155.996 258.819 568.41)" fill="#5C5C5C"/>
<ellipse cx="170.764" cy="261.774" rx="9.75011" ry="5.94729" transform="rotate(-69.2026 170.764 261.774)" fill="#5C5C5C"/>
<ellipse cx="377.978" cy="133.568" rx="9.75011" ry="5.94729" transform="rotate(3.72218 377.978 133.568)" fill="#5C5C5C"/>
<ellipse cx="124.977" cy="423.568" rx="9.75011" ry="5.94729" transform="rotate(3.72218 124.977 423.568)" fill="#5C5C5C"/>
<ellipse cx="201.978" cy="78.5677" rx="9.75011" ry="5.94729" transform="rotate(3.72218 201.978 78.5677)" fill="#5C5C5C"/>
</svg>
