<svg width="40" height="40" viewBox="0 0 40 40" fill="none" xmlns="http://www.w3.org/2000/svg">
<path d="M37.5002 20C37.5041 20.5127 37.3483 21.0139 37.0542 21.434C36.7602 21.854 36.3426 22.172 35.8595 22.3438L25.947 25.9485L22.3439 35.8594C22.1663 36.3378 21.8466 36.7505 21.4276 37.0419C21.0086 37.3333 20.5105 37.4894 20.0002 37.4894C19.4898 37.4894 18.9917 37.3333 18.5727 37.0419C18.1538 36.7505 17.834 36.3378 17.6564 35.8594L14.0517 25.9375L4.14078 22.3438C3.66234 22.1662 3.2497 21.8464 2.95832 21.4275C2.66693 21.0085 2.51074 20.5104 2.51074 20C2.51074 19.4897 2.66693 18.9916 2.95832 18.5726C3.2497 18.1536 3.66234 17.8339 4.14078 17.6563L14.0627 14.0516L17.6564 4.14066C17.834 3.66221 18.1538 3.24958 18.5727 2.95819C18.9917 2.66681 19.4898 2.51062 20.0002 2.51062C20.5105 2.51062 21.0086 2.66681 21.4276 2.95819C21.8466 3.24958 22.1663 3.66221 22.3439 4.14066L25.9486 14.0625L35.8595 17.6563C36.3426 17.828 36.7602 18.146 37.0542 18.5661C37.3483 18.9861 37.5041 19.4873 37.5002 20Z" fill="#F8F9FF"/>
</svg>
