<svg width="1277" height="215" viewBox="0 0 1277 215" fill="none" xmlns="http://www.w3.org/2000/svg">
<path d="M48.9808 157.173C15.394 160.731 2.33242 197.207 0 215H1277C1272.2 177.635 1238.02 181.082 1225.02 183.862C1205.83 146.052 1172.71 157.914 1154.05 162.733C1127.26 136.933 1099.9 151.983 1089.57 162.733C1073.58 126.257 1027.26 134.561 1006.11 143.272C992.911 117.027 958.958 117.88 943.631 121.587C942.631 102.125 923.139 77.6602 863.662 77.6602C853.666 36.7363 816.18 42.4448 798.687 50.4146C782.294 20.1665 749.207 28.544 734.712 36.5137C723.517 6.71044 689.73 6.30279 674.236 9.82438C657.842 -7.96852 639.083 2.41067 631.753 9.82438C596.966 -1.29626 575.941 32.2509 569.777 50.4146C540.188 28.6181 509.8 41.3327 498.305 50.4146C466.717 37.5147 449.157 63.2033 444.326 77.6602C421.135 48.3017 392.68 65.4275 381.351 77.6602C341.766 69.6533 322.874 98.7894 318.375 114.358C295.584 96.5653 268.562 113.988 257.899 124.923C229.11 89.3369 193.591 110.095 179.43 124.923C154.639 123.144 134.114 141.975 126.95 151.612C87.3658 113.357 58.4771 139.38 48.9808 157.173Z" fill="#FFDEAC"/>
</svg>
