<svg width="1917" height="178" viewBox="0 0 1917 178" fill="none" xmlns="http://www.w3.org/2000/svg">
<path d="M73.5288 130.124C23.109 133.071 4.00137 152.269 0.5 167L1917 178C1909.8 147.065 1858.48 149.919 1838.97 152.221C1810.16 120.917 1760.44 130.738 1732.43 134.728C1692.21 113.368 1651.15 125.828 1635.64 134.728C1611.63 104.529 1542.1 111.404 1510.34 118.616C1490.53 96.8876 1439.56 97.5934 1416.55 100.662C1415.05 84.5504 1385.79 64.2954 1296.51 64.2954C1281.5 30.4143 1225.23 35.1404 1198.97 41.7386C1174.36 16.696 1124.69 23.6318 1102.93 30.23C1086.12 5.55562 1035.41 5.21812 1012.15 8.13367C987.536 -6.59719 959.375 1.99581 948.371 8.13367C896.151 -1.07318 864.588 26.7008 855.335 41.7386C810.917 23.6932 774.757 44.4811 757.5 52C710.081 41.3201 674.253 57.0311 667 69C617.989 57.2046 590.5 73.7954 577 84.5C525 73.7954 486.253 94.1104 479.5 107C445.287 92.269 400.006 92.9466 384 102C321.5 76.5 288.758 104.724 267.5 117C230.285 115.527 201.329 117.542 190.575 125.521C145.5 103.425 87.7843 115.393 73.5288 130.124Z" fill="#FBEBD7"/>
</svg>
