<svg width="70" height="70" viewBox="0 0 70 70" fill="none" xmlns="http://www.w3.org/2000/svg">
<path d="M26.2502 20.4167H15.0064C17.7151 16.6919 21.4074 13.7949 25.6697 12.0501C29.932 10.3053 34.5959 9.78173 39.1389 10.538C39.5128 10.5843 39.8902 10.4841 40.1919 10.2584C40.4936 10.0327 40.6963 9.69895 40.7574 9.32714C40.8185 8.95532 40.7333 8.57429 40.5196 8.2639C40.306 7.95351 39.9805 7.73785 39.6114 7.66212C38.0868 7.41488 36.5447 7.29101 35.0002 7.29171C30.7786 7.29879 26.6142 8.26839 22.8236 10.1268C19.0331 11.9851 15.7162 14.6834 13.1252 18.0163V7.29171C13.1252 6.90493 12.9715 6.534 12.698 6.26051C12.4245 5.98702 12.0536 5.83337 11.6668 5.83337C11.2801 5.83337 10.9091 5.98702 10.6356 6.26051C10.3621 6.534 10.2085 6.90493 10.2085 7.29171V21.875C10.2085 22.2618 10.3621 22.6327 10.6356 22.9062C10.9091 23.1797 11.2801 23.3334 11.6668 23.3334H26.2502C26.6369 23.3334 27.0079 23.1797 27.2814 22.9062C27.5549 22.6327 27.7085 22.2618 27.7085 21.875C27.7085 21.4883 27.5549 21.1173 27.2814 20.8438C27.0079 20.5704 26.6369 20.4167 26.2502 20.4167ZM21.8752 42.2917C21.4884 42.2917 21.1175 42.4454 20.844 42.7188C20.5705 42.9923 20.4168 43.3633 20.4168 43.75V54.9938C16.6921 52.2851 13.795 48.5928 12.0502 44.3305C10.3055 40.0682 9.78186 35.4043 10.5381 30.8613C10.5844 30.4874 10.4843 30.11 10.2585 29.8083C10.0328 29.5066 9.69907 29.3039 9.32726 29.2428C8.95544 29.1817 8.57441 29.2669 8.26402 29.4806C7.95363 29.6942 7.73797 30.0197 7.66225 30.3888C6.84018 35.327 7.36845 40.3955 9.19116 45.0581C11.0139 49.7206 14.0632 53.8036 18.0164 56.875H7.29183C6.90506 56.875 6.53412 57.0287 6.26063 57.3022C5.98714 57.5757 5.8335 57.9466 5.8335 58.3334C5.8335 58.7201 5.98714 59.0911 6.26063 59.3646C6.53412 59.6381 6.90506 59.7917 7.29183 59.7917H21.8752C22.2619 59.7917 22.6329 59.6381 22.9064 59.3646C23.1798 59.0911 23.3335 58.7201 23.3335 58.3334V43.75C23.3335 43.3633 23.1798 42.9923 22.9064 42.7188C22.6329 42.4454 22.2619 42.2917 21.8752 42.2917ZM58.3335 46.6667H43.7502C43.3634 46.6667 42.9925 46.8204 42.719 47.0938C42.4455 47.3673 42.2918 47.7383 42.2918 48.125C42.2918 48.5118 42.4455 48.8827 42.719 49.1562C42.9925 49.4297 43.3634 49.5834 43.7502 49.5834H54.9939C52.2852 53.3081 48.5929 56.2052 44.3306 57.95C40.0683 59.6947 35.4045 60.2183 30.8614 59.4621C30.4875 59.4158 30.1101 59.5159 29.8084 59.7417C29.5067 59.9674 29.304 60.3011 29.243 60.6729C29.1819 61.0448 29.2671 61.4258 29.4807 61.7362C29.6943 62.0466 30.0198 62.2622 30.3889 62.338C31.9135 62.5852 33.4556 62.7091 35.0002 62.7084C39.2217 62.7013 43.3861 61.7317 47.1767 59.8733C50.9672 58.0149 54.2841 55.3167 56.8752 51.9838V62.7084C56.8752 63.0951 57.0288 63.4661 57.3023 63.7396C57.5758 64.0131 57.9467 64.1667 58.3335 64.1667C58.7203 64.1667 59.0912 64.0131 59.3647 63.7396C59.6382 63.4661 59.7918 63.0951 59.7918 62.7084V48.125C59.7918 47.7383 59.6382 47.3673 59.3647 47.0938C59.0912 46.8204 58.7203 46.6667 58.3335 46.6667ZM62.7085 10.2084H48.1252C47.7384 10.2084 47.3675 10.362 47.094 10.6355C46.8205 10.909 46.6668 11.2799 46.6668 11.6667V26.25C46.6668 26.6368 46.8205 27.0077 47.094 27.2812C47.3675 27.5547 47.7384 27.7084 48.1252 27.7084C48.5119 27.7084 48.8829 27.5547 49.1564 27.2812C49.4298 27.0077 49.5835 26.6368 49.5835 26.25V14.9917C52.3941 17.0104 54.7393 19.6082 56.461 22.61C58.6468 26.3731 59.7961 30.6482 59.7918 35C59.7918 36.3855 59.6839 37.7709 59.4622 39.1388C59.4312 39.3276 59.4377 39.5207 59.4813 39.707C59.5249 39.8934 59.6048 40.0693 59.7163 40.2247C59.8279 40.3802 59.969 40.5122 60.1316 40.6131C60.2942 40.714 60.4751 40.7819 60.6639 40.813C60.8527 40.844 61.0458 40.8375 61.2322 40.7939C61.4185 40.7503 61.5944 40.6704 61.7499 40.5589C61.9053 40.4473 62.0373 40.3062 62.1382 40.1436C62.2391 39.981 62.307 39.8001 62.3381 39.6113C62.5852 38.0867 62.7091 36.5446 62.7085 35C62.7128 30.1375 61.4298 25.3606 58.9897 21.1546C57.213 18.0423 54.8368 15.3131 51.9985 13.125H62.7085C63.0953 13.125 63.4662 12.9714 63.7397 12.6979C64.0132 12.4244 64.1668 12.0535 64.1668 11.6667C64.1668 11.2799 64.0132 10.909 63.7397 10.6355C63.4662 10.362 63.0953 10.2084 62.7085 10.2084Z" fill="#F8F9FF"/>
</svg>
